<svg width="25" height="25" viewBox="0 0 25 25" fill="none" xmlns="http://www.w3.org/2000/svg">
<g clip-path="url(#clip0_1_2847)">
<path d="M12.8877 0.11499C9.6312 0.11499 9.2217 0.12999 7.9422 0.18699C6.6627 0.24699 5.7912 0.44799 5.0277 0.74499C4.22684 1.04622 3.50143 1.51873 2.9022 2.12949C2.29181 2.72903 1.81936 3.45435 1.5177 4.25499C1.2207 5.01699 1.0182 5.88999 0.959695 7.16499C0.902695 8.44749 0.887695 8.85549 0.887695 12.1165C0.887695 15.3745 0.902695 15.7825 0.959695 17.062C1.0197 18.34 1.2207 19.2115 1.5177 19.975C1.8252 20.764 2.2347 21.433 2.9022 22.1005C3.5682 22.768 4.2372 23.179 5.0262 23.485C5.7912 23.782 6.6612 23.9845 7.9392 24.043C9.2202 24.1 9.6282 24.115 12.8877 24.115C16.1472 24.115 16.5537 24.1 17.8347 24.043C19.1112 23.983 19.9857 23.782 20.7492 23.485C21.5495 23.1836 22.2744 22.7111 22.8732 22.1005C23.5407 21.433 23.9502 20.764 24.2577 19.975C24.5532 19.2115 24.7557 18.34 24.8157 17.062C24.8727 15.7825 24.8877 15.3745 24.8877 12.115C24.8877 8.85549 24.8727 8.44749 24.8157 7.16649C24.7557 5.88999 24.5532 5.01699 24.2577 4.25499C23.9561 3.45433 23.4836 2.729 22.8732 2.12949C22.2741 1.5185 21.5487 1.04596 20.7477 0.74499C19.9827 0.44799 19.1097 0.24549 17.8332 0.18699C16.5522 0.12999 16.1457 0.11499 12.8847 0.11499H12.8892H12.8877ZM11.8122 2.27799H12.8892C16.0932 2.27799 16.4727 2.28849 17.7372 2.34699C18.9072 2.39949 19.5432 2.59599 19.9662 2.75949C20.5257 2.97699 20.9262 3.23799 21.3462 3.65799C21.7662 4.07799 22.0257 4.47699 22.2432 5.03799C22.4082 5.45949 22.6032 6.09549 22.6557 7.26549C22.7142 8.52999 22.7262 8.90949 22.7262 12.112C22.7262 15.3145 22.7142 15.6955 22.6557 16.96C22.6032 18.13 22.4067 18.7645 22.2432 19.1875C22.0508 19.7085 21.7437 20.1796 21.3447 20.566C20.9247 20.986 20.5257 21.2455 19.9647 21.463C19.5447 21.628 18.9087 21.823 17.7372 21.877C16.4727 21.934 16.0932 21.9475 12.8892 21.9475C9.6852 21.9475 9.3042 21.934 8.0397 21.877C6.8697 21.823 6.2352 21.628 5.8122 21.463C5.29094 21.2709 4.81938 20.9644 4.4322 20.566C4.03282 20.179 3.72528 19.7075 3.5322 19.186C3.3687 18.7645 3.1722 18.1285 3.1197 16.9585C3.0627 15.694 3.0507 15.3145 3.0507 12.109C3.0507 8.90499 3.0627 8.52699 3.1197 7.26249C3.1737 6.09249 3.3687 5.45649 3.5337 5.03349C3.7512 4.47399 4.0122 4.07349 4.4322 3.65349C4.8522 3.23349 5.2512 2.97399 5.8122 2.75649C6.2352 2.59149 6.8697 2.39649 8.0397 2.34249C9.1467 2.29149 9.5757 2.27649 11.8122 2.27499V2.27799ZM19.2942 4.26999C19.1051 4.26999 18.9178 4.30724 18.7431 4.3796C18.5684 4.45197 18.4097 4.55804 18.276 4.69176C18.1422 4.82547 18.0362 4.98422 17.9638 5.15893C17.8914 5.33363 17.8542 5.52089 17.8542 5.70999C17.8542 5.89909 17.8914 6.08635 17.9638 6.26105C18.0362 6.43576 18.1422 6.59451 18.276 6.72822C18.4097 6.86194 18.5684 6.96801 18.7431 7.04038C18.9178 7.11274 19.1051 7.14999 19.2942 7.14999C19.6761 7.14999 20.0424 6.99828 20.3124 6.72822C20.5825 6.45817 20.7342 6.0919 20.7342 5.70999C20.7342 5.32808 20.5825 4.96181 20.3124 4.69176C20.0424 4.4217 19.6761 4.26999 19.2942 4.26999ZM12.8892 5.95299C12.0718 5.94024 11.26 6.09022 10.5012 6.3942C9.74229 6.69818 9.05147 7.1501 8.46892 7.72363C7.88637 8.29715 7.42374 8.98084 7.10796 9.73488C6.79217 10.4889 6.62955 11.2982 6.62955 12.1157C6.62955 12.9332 6.79217 13.7426 7.10796 14.4966C7.42374 15.2506 7.88637 15.9343 8.46892 16.5079C9.05147 17.0814 9.74229 17.5333 10.5012 17.8373C11.26 18.1413 12.0718 18.2912 12.8892 18.2785C14.507 18.2532 16.05 17.5929 17.1852 16.4399C18.3203 15.2869 18.9565 13.7337 18.9565 12.1157C18.9565 10.4977 18.3203 8.94461 17.1852 7.79161C16.05 6.63862 14.507 5.97823 12.8892 5.95299ZM12.8892 8.11449C13.9502 8.11449 14.9677 8.53597 15.718 9.28621C16.4682 10.0364 16.8897 11.054 16.8897 12.115C16.8897 13.176 16.4682 14.1935 15.718 14.9438C14.9677 15.694 13.9502 16.1155 12.8892 16.1155C11.8282 16.1155 10.8107 15.694 10.0604 14.9438C9.31018 14.1935 8.8887 13.176 8.8887 12.115C8.8887 11.054 9.31018 10.0364 10.0604 9.28621C10.8107 8.53597 11.8282 8.11449 12.8892 8.11449Z" fill="white"/>
</g>
<defs>
<clipPath id="clip0_1_2847">
<rect width="24" height="24" fill="white" transform="translate(0.887695 0.11499)"/>
</clipPath>
</defs>
</svg>
