<svg width="20" height="20" viewBox="0 0 20 20" fill="none" xmlns="http://www.w3.org/2000/svg">
<path d="M4.24023 17.6379H3.36523V12.7421L7.5319 11.8879L9.94857 14.3046C10.5041 13.9852 11.0216 13.6413 11.5011 13.2729C11.9805 12.9046 12.4213 12.5193 12.8236 12.1171C13.2541 11.7004 13.6569 11.2491 14.0319 10.7629C14.4069 10.2768 14.7472 9.76294 15.0527 9.22127L12.6777 6.82544L13.4486 2.63794H18.3652V3.51294C18.3652 5.26294 17.9902 6.98516 17.2402 8.67961C16.4902 10.3741 15.4208 11.9157 14.0319 13.3046C12.643 14.6935 11.0977 15.7629 9.39607 16.5129C7.6944 17.2629 5.97579 17.6379 4.24023 17.6379Z" fill="white"/>
</svg>
