<svg width="21" height="21" viewBox="0 0 21 21" fill="none" xmlns="http://www.w3.org/2000/svg">
<g clip-path="url(#clip0_1_2851)">
<path d="M4.19824 8.59052C4.19824 4.84302 7.18324 1.80469 10.8649 1.80469C14.5466 1.80469 17.5316 4.84302 17.5316 8.59052C17.5316 12.3089 15.4041 16.6489 12.0841 18.1997C11.7025 18.3784 11.2863 18.471 10.8649 18.471C10.4435 18.471 10.0273 18.3784 9.64574 18.1997C6.32574 16.648 4.19824 12.3089 4.19824 8.59135V8.59052Z" stroke="white" stroke-width="2"/>
<path d="M10.8652 10.9714C12.2459 10.9714 13.3652 9.85215 13.3652 8.47144C13.3652 7.09072 12.2459 5.97144 10.8652 5.97144C9.48452 5.97144 8.36523 7.09072 8.36523 8.47144C8.36523 9.85215 9.48452 10.9714 10.8652 10.9714Z" stroke="white" stroke-width="2"/>
</g>
<defs>
<clipPath id="clip0_1_2851">
<rect x="0.865234" y="0.137939" width="20" height="20" rx="7" fill="white"/>
</clipPath>
</defs>
</svg>
