<svg width="48" height="48" viewBox="0 0 48 48" fill="none" xmlns="http://www.w3.org/2000/svg">
<path fill-rule="evenodd" clip-rule="evenodd" d="M31.3677 0H16.6323C3.18419 0 0 3.18419 0 16.6323V31.3677C0 44.8158 3.18419 48 16.6323 48H31.3677C44.8158 48 48 44.8158 48 31.3677V16.6323C48 3.18419 44.8158 0 31.3677 0ZM38.2442 15.2438C39.2943 15.2438 39.5314 15.7858 39.2943 16.5311C38.9243 18.239 35.8512 22.7695 34.8994 24.1728C34.7185 24.4394 34.6142 24.5932 34.6197 24.5932C34.247 25.2029 34.1115 25.4739 34.6197 26.1514C34.8033 26.4019 35.1928 26.7841 35.638 27.2209C36.0958 27.6702 36.6125 28.1772 37.0247 28.6581C38.5152 30.3518 39.6669 31.7745 39.9718 32.7569C40.2428 33.7392 39.7686 34.2474 38.7523 34.2474H35.2633C34.3386 34.2474 33.862 33.7164 32.8462 32.5847C32.4107 32.0994 31.8761 31.5038 31.1645 30.7922C29.0981 28.7936 28.1835 28.5226 27.6754 28.5226C26.964 28.5226 26.7608 28.692 26.7608 29.7082V32.8585C26.7608 33.7054 26.4898 34.2135 24.2541 34.2135C20.5618 34.2135 16.463 31.9778 13.5837 27.8112C9.24774 21.7138 8.06213 17.1069 8.06213 16.1923C8.06213 15.6842 8.23151 15.21 9.24774 15.21H12.7707C13.6514 15.21 13.9902 15.5826 14.3289 16.5649C16.0565 21.5445 18.9358 25.9143 20.1214 25.9143C20.5618 25.9143 20.765 25.711 20.765 24.5932V19.4443C20.6814 17.9807 20.1719 17.3431 19.7941 16.8702C19.5598 16.577 19.3762 16.3471 19.3762 16.0229C19.3762 15.6165 19.7149 15.21 20.2569 15.21H25.7446C26.4898 15.21 26.7608 15.6165 26.7608 16.4972V23.4414C26.7608 24.1867 27.0657 24.4577 27.3028 24.4577C27.7432 24.4577 28.1158 24.1867 28.9288 23.3737C31.4355 20.5621 33.2308 16.2262 33.2308 16.2262C33.4679 15.7181 33.8744 15.2438 34.7551 15.2438H38.2442Z" fill="white"/>
</svg>
