<svg width="16" height="16" viewBox="0 0 16 16" fill="none" xmlns="http://www.w3.org/2000/svg">
<g id="chair_8515820 1" clip-path="url(#clip0_1_2626)">
<g id="Group">
<path id="Vector" d="M5.59687 1.63136C4.54062 1.75011 3.4375 2.28136 2.67187 3.04699C2.37812 3.34074 1.175 4.72824 0.959375 5.02824C0.359375 5.85011 0 6.95324 0 7.98449V8.27824L0.228125 8.48136C0.975 9.15011 1.84375 9.62824 2.75 9.86261C3.4875 10.0532 3.19687 10.0407 7.85937 10.0532C10.9187 10.0626 12.2375 10.0564 12.4844 10.0314C13.6906 9.90636 14.8656 9.40636 15.7625 8.64074L16.0094 8.42824L15.9906 7.90949C15.9562 6.86886 15.6875 6.00636 15.1437 5.18761C14.8969 4.81886 13.5812 3.30011 13.1844 2.92511C12.4187 2.20324 11.4219 1.75324 10.3281 1.62511C9.97812 1.58761 5.96562 1.59074 5.59687 1.63136ZM3.225 5.39386C3.54375 5.55324 3.91562 5.80636 4.16562 6.03449C4.39375 6.24074 4.77812 6.71574 4.87812 6.91261C4.9125 6.97824 4.94687 7.03136 4.95625 7.03136C4.9625 7.03136 5.1625 6.99699 5.4 6.95324C7.07812 6.64074 9.0875 6.64699 10.6844 6.97199C10.9125 7.01886 11.0156 7.02824 11.025 7.00324C11.0312 6.98449 11.1062 6.86261 11.1906 6.73449C11.4906 6.27511 12.0656 5.75011 12.5781 5.46886C13.0594 5.20636 13.25 5.19386 13.4781 5.40324C13.5937 5.51261 13.6062 5.53761 13.6156 5.70636C13.6344 5.99699 13.5781 6.07511 13.1844 6.28136C13.0031 6.37511 12.7875 6.50324 12.7031 6.56886C12.4531 6.75011 11.9906 7.25324 12.0344 7.29386C12.0406 7.30011 12.1875 7.34699 12.3625 7.40011C12.8187 7.54074 12.9375 7.65949 12.9375 7.96261C12.9375 8.22511 12.7312 8.44074 12.4781 8.44386C12.4125 8.44386 12.1687 8.38449 11.9375 8.31261C11.125 8.06261 10.3719 7.90324 9.46875 7.79074C8.90312 7.72199 7.17812 7.71261 6.64062 7.77511C5.70625 7.88449 4.80937 8.06886 4.10937 8.29699C3.62187 8.45636 3.57812 8.46574 3.44062 8.43136C3.09062 8.34386 2.95312 7.90949 3.19062 7.64074C3.27812 7.54074 3.59375 7.39386 3.85312 7.32824C3.9 7.31574 3.9375 7.30011 3.9375 7.29074C3.9375 7.28449 3.875 7.19386 3.79687 7.09699C3.54062 6.75949 3.15 6.45636 2.73125 6.26261C2.42812 6.12199 2.32812 5.99386 2.32812 5.75324C2.32812 5.53761 2.41875 5.39699 2.60625 5.30949C2.77812 5.22824 2.94062 5.25011 3.225 5.39386Z" fill="white"/>
<path id="Vector_2" d="M0 10.7719C0 11.4407 0.015625 12.0407 0.034375 12.1563C0.115625 12.6813 0.365625 13.1719 0.74375 13.5688C1.02188 13.8594 1.31563 14.0626 1.66562 14.2063C2.18125 14.4157 1.8875 14.4063 8 14.4063C14.0094 14.4063 13.7969 14.4126 14.2719 14.2344C14.925 13.9876 15.5188 13.4157 15.7875 12.7719C15.975 12.3313 16 12.1094 16 10.8563V9.72818L15.6969 9.92818C15.3375 10.1657 14.6313 10.5188 14.2344 10.6563C13.8594 10.7876 13.4406 10.8938 12.9844 10.9782C12.6125 11.0438 12.5625 11.0438 8.34375 11.0563C5.32188 11.0626 3.96563 11.0563 3.6875 11.0313C2.45 10.9188 1.18438 10.4501 0.2125 9.74693L0 9.59381V10.7719Z" fill="white"/>
</g>
</g>
<defs>
<clipPath id="clip0_1_2626">
<rect width="16" height="16" fill="white"/>
</clipPath>
</defs>
</svg>
