<svg width="16" height="16" viewBox="0 0 16 16" fill="none" xmlns="http://www.w3.org/2000/svg">
<g id="emojione-monotone:pot-of-food" clip-path="url(#clip0_1_2621)">
<path id="Vector" d="M14.8988 8.96975C15.8565 7.14525 13.9098 5.88 11.3645 5.2595C11.556 4.82425 11.6115 4.2545 11.0715 3.7105C10.379 3.01425 10.8393 2 10.8393 2C10.8393 2 9.38577 3.34075 10.3035 4.26525C10.642 4.606 10.8183 4.90525 10.9025 5.1555C10.1999 5.01067 9.4884 4.91262 8.77277 4.862C8.98652 4.281 9.00727 3.55125 8.33377 2.8525C7.41177 1.89475 8.02577 0.5 8.02577 0.5C8.02577 0.5 6.08752 2.3435 7.31127 3.6145C7.75802 4.078 7.99327 4.486 8.10727 4.828C7.34877 4.80525 6.61877 4.8385 5.97027 4.92925C6.04752 4.5555 5.98302 4.12575 5.57077 3.71075C4.87827 3.0145 5.33877 2 5.33877 2C5.33877 2 3.88502 3.34075 4.80302 4.26525C5.09052 4.55475 5.25902 4.81325 5.35577 5.0385C5.24627 5.0625 5.14002 5.0885 5.03777 5.11675C1.87727 4.821 0.498771 5.474 1.12852 6.755C0.0295212 7.854 0.442521 9.10825 1.81777 10.068C2.53527 13.0232 2.72002 15.5 8.12402 15.5C12.946 15.5 13.6123 13.5275 14.2095 11.003C16.0015 10.6462 15.6198 9.78725 14.8988 8.96975ZM14.452 8.6745C13.8518 9.9545 11.2468 10.918 8.12402 10.918C5.00152 10.918 2.39652 9.9545 1.79602 8.6745C1.78327 8.6365 1.77102 8.597 1.75877 8.5585C2.04477 7.833 2.97427 7.2035 4.27977 6.782C3.97302 7.0785 3.90927 7.52125 4.71652 7.6765C4.94752 7.721 5.58177 7.567 5.30452 6.78C5.26577 6.67 5.20252 6.59625 5.12477 6.55175C6.02177 6.3465 7.04002 6.22825 8.12402 6.22825C8.24552 6.22825 8.36477 6.2325 8.48452 6.23525C7.85902 6.45725 7.34877 7.14125 8.62602 7.343C8.90802 7.3875 9.68227 7.2335 9.34377 6.4465C9.3142 6.37636 9.2668 6.31517 9.20627 6.269C10.403 6.357 11.4873 6.5875 12.3638 6.91975C11.593 6.87675 10.738 7.35175 12.1073 8.0205C12.401 8.164 13.2935 8.29575 13.1708 7.42675C13.1619 7.36397 13.1397 7.3038 13.1058 7.25025C13.8065 7.6195 14.2953 8.06725 14.489 8.5585L14.452 8.6745Z" fill="white"/>
<path id="Vector_2" d="M6.4592 9.2102C7.26745 9.2102 7.80645 8.47945 8.2287 8.19345C8.8187 7.79345 10.3022 7.63745 8.9957 7.60595C7.75645 7.5762 6.22645 8.5822 5.20395 8.51295C3.51095 8.39795 5.24495 9.2102 6.4592 9.2102ZM8.2057 10.7032C8.4912 10.7582 9.27595 10.5677 8.9327 9.59445C8.54495 8.4932 6.1977 10.3167 8.2057 10.7032ZM3.7617 8.29445C3.48895 7.90945 3.09345 7.4212 2.9297 7.67545C2.70595 8.0232 2.63545 8.72295 2.79795 8.75395C4.07195 8.9982 3.9827 8.6062 3.7617 8.29445ZM11.168 8.45045C11.3977 8.16595 10.939 7.4812 10.6445 7.60095C10.1835 7.78845 9.9177 7.66145 9.7152 7.94595C9.24095 8.6122 10.8557 8.8367 11.168 8.45045ZM11.0245 9.2657C10.694 9.11995 10.772 9.6082 10.2837 9.21645C9.9342 8.93595 9.1822 9.64345 9.6782 10.1239C10.2302 10.6587 10.3772 10.1504 10.6092 10.1932C11.0807 10.2799 11.8915 9.6482 11.0245 9.2657ZM5.52895 9.4327C5.3567 9.2632 5.1257 9.4677 4.9952 9.7172C4.86595 9.6537 4.7607 9.63895 4.7607 9.63895C4.66195 9.35745 4.3682 9.16445 4.3682 9.16445C4.3682 9.16445 4.39495 9.4572 4.4337 9.59995C4.1092 9.4847 4.0992 8.9047 4.0992 8.9047C4.0992 8.9047 3.88145 9.03495 3.9012 9.2562C3.54395 8.96795 3.2397 9.1027 3.2397 9.1027C3.2397 9.1027 3.69295 9.3577 3.75545 9.5297C3.50095 9.54945 3.35245 9.63745 3.26595 9.8422C3.2662 9.84395 3.76895 9.60295 4.14095 9.77695C3.9942 9.89695 4.0672 10.1967 4.0672 10.1967C4.41345 9.8297 4.68995 9.86895 4.9112 9.9347C4.88445 10.0469 4.8862 10.1494 4.9337 10.2117C5.31745 10.7162 6.6542 10.6027 7.0132 10.2297C7.44795 9.77845 6.23995 10.1324 5.52895 9.4327Z" fill="white"/>
<path id="Vector_3" d="M6.4733 7.53255C6.35955 7.76105 6.3588 7.93355 6.4903 8.11305C6.49205 8.11355 6.5433 7.55855 6.88355 7.32855C6.9113 7.51605 7.2058 7.60705 7.2058 7.60705C6.9703 6.77305 7.6578 6.72955 7.65455 6.4303C7.29005 6.46105 7.08305 6.72605 7.08305 6.72605C6.7908 6.6663 6.47405 6.81905 6.47405 6.81905C6.47405 6.81905 6.7393 6.9463 6.88155 6.98655C6.61605 7.2058 6.11305 6.91655 6.11305 6.91655C6.11305 6.91655 6.11305 7.17055 6.31305 7.2668C5.8823 7.42555 5.8418 7.75555 5.8418 7.75555C5.8418 7.75555 6.2933 7.4978 6.4733 7.53255ZM12.861 8.67155C12.9645 8.47505 12.8135 8.2708 12.8135 8.2708C12.8135 8.2708 12.5813 8.80255 12.2375 8.7843C12.328 8.6673 12.4655 8.4073 12.4655 8.4073C12.4655 8.4073 12.12 8.47305 11.9205 8.6948C11.9205 8.6948 11.5965 8.60505 11.2855 8.79705C11.461 9.03955 12.0395 8.6653 12.3463 9.4758C12.3463 9.4758 12.5288 9.22755 12.4395 9.0603C12.85 9.04255 13.2215 9.45805 13.2228 9.45655C13.2213 9.23405 13.1183 9.09605 12.8905 8.98005C13.0145 8.8453 13.531 8.78405 13.531 8.78405C13.531 8.78405 13.302 8.5428 12.861 8.67155Z" fill="white"/>
</g>
<defs>
<clipPath id="clip0_1_2621">
<rect width="16" height="16" fill="white"/>
</clipPath>
</defs>
</svg>
