<svg width="13" height="13" viewBox="0 0 13 13" fill="none" xmlns="http://www.w3.org/2000/svg">
<path id="Subtract" fill-rule="evenodd" clip-rule="evenodd" d="M8.81702 0.974976H5.13318C1.77115 0.974976 0.975098 1.77102 0.975098 5.13306V8.81689C0.975098 12.1789 1.77115 12.975 5.13318 12.975H8.81702C12.179 12.975 12.9751 12.1789 12.9751 8.81689V5.13306C12.9751 1.77102 12.179 0.974976 8.81702 0.974976ZM10.5361 4.78584C10.7986 4.78584 10.8579 4.92134 10.7986 5.10765C10.7061 5.53463 9.93787 6.66727 9.69991 7.01809C9.65469 7.08474 9.62863 7.12317 9.62998 7.12317C9.53683 7.27561 9.50295 7.34336 9.62998 7.51273C9.6759 7.57535 9.77327 7.6709 9.88456 7.7801C9.99902 7.89242 10.1282 8.01918 10.2312 8.13941C10.6039 8.56284 10.8918 8.91852 10.968 9.16411C11.0358 9.4097 10.9172 9.53672 10.6631 9.53672H9.79088C9.55972 9.53672 9.44057 9.40397 9.18663 9.12105C9.07775 8.99974 8.94408 8.85083 8.76618 8.67293C8.2496 8.17328 8.02095 8.10553 7.89392 8.10553C7.71608 8.10553 7.66526 8.14788 7.66526 8.40193V9.18951C7.66526 9.40123 7.59752 9.52825 7.03859 9.52825C6.11551 9.52825 5.09081 8.96933 4.37098 7.92769C3.287 6.40334 2.9906 5.25162 2.9906 5.02296C2.9906 4.89593 3.03294 4.77737 3.287 4.77737H4.16774C4.38792 4.77737 4.4726 4.87053 4.55729 5.11612C4.98919 6.361 5.70902 7.45345 6.00542 7.45345C6.11551 7.45345 6.16632 7.40264 6.16632 7.12317V5.83595C6.14542 5.47007 6.01805 5.31065 5.9236 5.19244C5.86503 5.11913 5.81911 5.06166 5.81911 4.98062C5.81911 4.879 5.9038 4.77737 6.03929 4.77737H7.41121C7.59752 4.77737 7.66526 4.879 7.66526 5.09918V6.83524C7.66526 7.02155 7.74148 7.0893 7.80076 7.0893C7.91085 7.0893 8.00401 7.02155 8.20726 6.8183C8.83393 6.11541 9.28277 5.03143 9.28277 5.03143C9.34205 4.9044 9.44367 4.78584 9.66385 4.78584H10.5361Z" fill="#FFFBF6"/>
</svg>
