<svg width="12" height="12" viewBox="0 0 12 12" fill="none" xmlns="http://www.w3.org/2000/svg">
<path d="M1.99976 5.0715C1.99976 2.823 3.79076 1 5.99976 1C8.20876 1 9.99976 2.823 9.99976 5.0715C9.99976 7.3025 8.72326 9.9065 6.73126 10.837C6.5023 10.9442 6.25257 10.9998 5.99976 10.9998C5.74694 10.9998 5.49721 10.9442 5.26826 10.837C3.27626 9.906 1.99976 7.3025 1.99976 5.072V5.0715Z" stroke="white"/>
<path d="M6 6.5C6.82843 6.5 7.5 5.82843 7.5 5C7.5 4.17157 6.82843 3.5 6 3.5C5.17157 3.5 4.5 4.17157 4.5 5C4.5 5.82843 5.17157 6.5 6 6.5Z" stroke="white"/>
</svg>
