<svg width="427" height="618" viewBox="0 0 427 618" fill="none" xmlns="http://www.w3.org/2000/svg">
<circle cx="220" cy="151" r="5.5" stroke="#B1F83C"/>
<path d="M221.62 112.677V79.6898C221.62 38.1636 255.284 4.5 296.81 4.5V4.5C338.336 4.5 372 38.1636 372 79.6899V243.424V309C372 391.843 304.843 459 222 459H198C115.157 459 48 391.843 48 309V243.424" stroke="#275026" stroke-width="9"/>
<rect x="45" y="205.5" width="6" height="16.5" fill="#275026"/>
<rect x="67.5" y="222" width="22.5" height="39" transform="rotate(90 67.5 222)" fill="#275026"/>
<path d="M22.0195 124.44C22.0195 121.62 22.9195 119.1 24.6895 116.88C26.4595 114.66 28.7095 113.25 31.4395 112.65C32.1895 109.29 33.8995 106.5 36.5995 104.34C39.2995 102.18 42.3595 101.1 45.8395 101.1C49.1995 101.1 52.2295 102.15 54.8995 104.25C57.5695 106.35 59.2795 109.05 60.0895 112.32H60.8995C64.2595 112.32 67.1395 113.49 69.5395 115.86C71.9095 118.2 73.1095 121.08 73.1095 124.41C73.1095 126.21 72.7495 127.92 71.9995 129.51C71.2495 131.1 70.2295 132.48 68.9095 133.62V133.71C68.9095 135.48 68.3395 137.07 67.2295 138.48C66.1195 139.89 64.7095 140.76 63.0295 141.15C62.6095 143.01 61.6795 144.6 60.2995 145.89C58.9195 147.18 57.2695 147.99 55.4095 148.29C56.2795 149.31 56.6995 150.45 56.6995 151.68C56.6995 153.12 56.1895 154.35 55.1695 155.4C54.1495 156.42 52.9195 156.96 51.4795 156.96C50.0395 156.96 48.8095 156.45 47.7895 155.4C46.7695 154.38 46.2595 153.12 46.2595 151.68C46.2595 151.11 46.3495 150.54 46.5595 149.97H46.2595C44.5195 149.97 43.0195 149.34 41.7595 148.08C40.4995 146.82 39.8695 145.32 39.8695 143.58C39.8695 142.38 40.1695 141.3 40.7695 140.37C39.2095 139.5 38.0995 138.27 37.4095 136.62H33.5695V136.59C30.3595 136.38 27.6295 135.12 25.3795 132.78C23.1295 130.44 22.0195 127.68 22.0195 124.44ZM26.2195 123.69C26.2195 126.09 27.0595 128.13 28.7395 129.81C30.4195 131.49 32.4595 132.33 34.8295 132.33C36.2995 132.33 37.6795 132 38.9395 131.31C39.2995 133.53 40.3495 135.39 42.0595 136.89C43.7695 138.39 45.8095 139.11 48.1195 139.11C50.7295 139.11 52.9495 138.18 54.7795 136.35C56.0095 137.79 57.5395 138.48 59.3995 138.48C61.1095 138.48 62.5495 137.88 63.7795 136.68C64.9795 135.48 65.5795 134.01 65.5795 132.3C66.7795 131.49 67.7395 130.47 68.4295 129.18C69.1195 127.92 69.4795 126.54 69.4795 125.07C69.4795 122.7 68.6395 120.66 66.9295 119.01C65.2195 117.36 63.1795 116.52 60.7795 116.52C59.0995 116.52 57.5695 116.97 56.1895 117.84C56.3695 117.12 56.4295 116.31 56.4295 115.47C56.4295 112.59 55.4095 110.13 53.3395 108.09C51.2695 106.05 48.7795 105.06 45.8695 105.06C43.0495 105.06 40.6195 106.05 38.5795 107.97C36.5395 109.89 35.4595 112.29 35.3695 115.08H34.8595C32.4895 115.08 30.4795 115.92 28.7695 117.6C27.0595 119.28 26.2195 121.35 26.2195 123.69Z" fill="#B1F83C"/>
<path d="M164.985 78.72L194.484 148.153C206.01 152.045 217.245 151.873 228.951 148.156L254.535 78.7207L164.985 78.72ZM140.625 91.147L144.047 100.557C150.237 117.583 160.169 134.99 165.681 151.309C171.192 167.629 172.48 181.589 163.335 194.535C153.115 209.003 134.507 223.805 118.046 241.344C101.585 258.883 87 279.978 87 307.389C87 375.622 142.182 431.568 210.201 431.568C278.22 431.568 333.923 375.658 333.923 307.389C333.923 280.131 320.003 258.669 303.781 240.859C287.561 223.049 268.783 208.187 257.29 194.14C250.432 185.76 251.252 168.544 256.633 149.939C262.013 131.334 271.026 112.419 275.988 100.944L280.224 91.147H264.843L240.202 158.023C236.745 174.491 236.616 190.956 246.5 203.035C259.57 219.008 278.316 233.668 293.477 250.314C308.639 266.959 319.961 284.887 319.961 307.389C319.961 368.015 270.606 417.555 210.2 417.555C149.796 417.555 100.961 368.054 100.961 307.389C100.961 284.933 112.731 267.441 128.208 250.951C143.687 234.463 162.603 219.796 174.723 202.64C186.739 185.629 185.146 166.197 179.422 148.423L161.296 105.763C161.21 105.564 161.116 105.359 161.03 105.161H161.042L155.088 91.147H140.625Z" fill="#275026"/>
<path d="M148.654 601V576.391H150.553V601H148.654ZM153.365 595.973V587.605C153.365 586.504 153.857 585.438 154.842 584.406C156.014 583.211 157.467 582.613 159.201 582.613V584.371C157.631 584.371 156.459 585.027 155.686 586.34C155.357 586.926 155.193 587.5 155.193 588.062V595.516C155.193 596.453 155.639 597.344 156.529 598.188C157.326 598.914 158.217 599.277 159.201 599.277V601.035C157.021 601.035 155.357 600.156 154.209 598.398C153.646 597.555 153.365 596.746 153.365 595.973ZM160.678 601.035V599.277C162.131 599.277 163.232 598.609 163.982 597.273C164.334 596.688 164.51 596.125 164.51 595.586V588.062C164.51 587.031 164.064 586.117 163.174 585.32C162.447 584.688 161.615 584.371 160.678 584.371V582.613C162.787 582.613 164.404 583.469 165.529 585.18C166.068 586.023 166.338 586.832 166.338 587.605V595.973C166.338 597.098 165.857 598.176 164.896 599.207C163.771 600.402 162.365 601.012 160.678 601.035ZM169.01 596.113V582.684H170.838V595.902C170.838 596.816 171.33 597.648 172.314 598.398C173.088 599.031 173.955 599.348 174.916 599.348V601.176C172.713 601.176 171.037 600.32 169.889 598.609C169.303 597.742 169.01 596.91 169.01 596.113ZM176.428 601.176V599.348C177.881 599.348 179.018 598.773 179.838 597.625C180.26 597.039 180.471 596.465 180.471 595.902V582.684H182.334V596.113C182.334 597.191 181.842 598.246 180.857 599.277C179.662 600.52 178.186 601.152 176.428 601.176ZM185.006 601V587.57C185.006 586.445 185.51 585.355 186.518 584.301C187.713 583.105 189.178 582.508 190.912 582.508V584.336C189.623 584.336 188.533 584.84 187.643 585.848C187.104 586.48 186.834 587.125 186.834 587.781V601H185.006ZM192.424 584.336V582.508C194.533 582.508 196.197 583.375 197.416 585.109C198.025 585.977 198.33 586.797 198.33 587.57V601H196.467V587.781C196.467 587.031 196.08 586.281 195.307 585.531C194.486 584.734 193.525 584.336 192.424 584.336ZM200.686 607.398L201.143 605.676H207.576C209.217 605.605 210.447 604.984 211.268 603.812C211.619 603.32 211.795 602.84 211.795 602.371V599.277C211.162 600.074 210.271 600.602 209.123 600.859C208.771 600.953 208.42 601 208.068 601V599.348C209.146 599.348 210.107 598.867 210.951 597.906C211.514 597.273 211.795 596.641 211.795 596.008V587.641C211.795 586.375 211.127 585.414 209.791 584.758C209.182 584.453 208.607 584.301 208.068 584.301V582.578C209.311 582.578 210.424 582.977 211.408 583.773C211.572 583.914 211.701 584.043 211.795 584.16V582.578H213.588V602.371C213.588 603.355 213.143 604.375 212.252 605.43C211.15 606.719 209.779 607.375 208.139 607.398H200.686ZM201.002 596.008V587.5C201.025 586.398 201.506 585.332 202.443 584.301C203.545 583.152 204.893 582.578 206.486 582.578V584.301C205.244 584.301 204.213 584.875 203.393 586.023C202.994 586.586 202.795 587.113 202.795 587.605V595.973C202.795 596.77 203.205 597.543 204.025 598.293C204.775 598.949 205.596 599.277 206.486 599.277V601C204.377 600.977 202.795 600.074 201.74 598.293C201.248 597.496 201.002 596.734 201.002 596.008ZM216.4 595.973V587.57C216.424 586.469 216.939 585.414 217.947 584.406C219.096 583.211 220.514 582.613 222.201 582.613V584.336C220.865 584.336 219.764 584.934 218.896 586.129C218.451 586.738 218.229 587.312 218.229 587.852V590.629H227.791V587.852C227.791 586.68 227.217 585.73 226.068 585.004C225.342 584.535 224.592 584.301 223.818 584.301V582.613C225.389 582.613 226.795 583.188 228.037 584.336C229.068 585.32 229.596 586.387 229.619 587.535V592.387H218.229V595.973C218.229 596.699 218.674 597.449 219.564 598.223C220.408 598.926 221.299 599.277 222.236 599.277V601C220.174 601 218.545 600.156 217.35 598.469C216.717 597.578 216.4 596.746 216.4 595.973ZM223.818 601V599.172C225.342 599.172 226.537 598.527 227.404 597.238C227.662 596.84 227.838 596.465 227.932 596.113L229.654 596.711C229.139 598.422 228.096 599.652 226.525 600.402C225.682 600.801 224.779 601 223.818 601ZM240.869 601V576.355H242.732V601H240.869ZM244.35 601V599.242H248.111C249.119 599.242 250.045 598.797 250.889 597.906C251.475 597.273 251.779 596.605 251.803 595.902V587.711C251.803 586.703 251.287 585.836 250.256 585.109C249.553 584.617 248.838 584.371 248.111 584.371H244.35V582.613H248.146C249.857 582.613 251.299 583.293 252.471 584.652C253.244 585.59 253.631 586.562 253.631 587.57V595.973C253.631 597.074 253.162 598.141 252.225 599.172C251.123 600.367 249.74 600.977 248.076 601H244.35ZM256.021 596.711V595.059C256.045 593.582 256.631 592.516 257.779 591.859C258.178 591.648 259.771 591.203 262.561 590.523C265.49 589.82 266.943 589.188 266.92 588.625V588.027C266.92 587.113 266.639 586.305 266.076 585.602C265.303 584.664 264.342 584.195 263.193 584.195V582.508C264.717 582.508 265.994 582.988 267.025 583.949C268.197 585.051 268.783 586.422 268.783 588.062V598.012C268.783 598.785 269.088 599.184 269.697 599.207V600.965C268.83 600.895 268.01 600.461 267.236 599.664C267.166 599.734 267.084 599.805 266.99 599.875C266.029 600.602 264.764 600.965 263.193 600.965V599.242C265.678 599.219 266.932 598.035 266.955 595.691V590.945C266.275 591.297 264.811 591.73 262.561 592.246C260.029 592.809 258.564 593.289 258.166 593.688C257.908 593.945 257.779 594.379 257.779 594.988V596.254C257.779 596.676 257.861 597.074 258.025 597.449C258.564 598.645 259.748 599.242 261.576 599.242V600.965C260.123 600.965 258.881 600.59 257.85 599.84C256.631 598.996 256.021 597.953 256.021 596.711ZM256.268 587.148C256.268 586.07 256.689 585.086 257.533 584.195C258.658 583.07 260.006 582.508 261.576 582.508V584.23C260.92 584.23 260.299 584.406 259.713 584.758C258.518 585.438 257.92 586.445 257.92 587.781L256.268 587.148ZM272.51 601V582.613H274.338V585.496C274.807 584.512 275.592 583.738 276.693 583.176C277.42 582.801 278.17 582.613 278.943 582.613H279.154L278.697 584.371C277.525 584.371 276.471 585.074 275.533 586.48C274.76 587.652 274.373 588.883 274.373 590.172V601H272.51Z" fill="#B1F83C"/>
<path d="M24.4573 523.12V520.24H44.1373V540.16C42.5373 542.72 40.2573 544.7 37.2973 546.1C34.3373 547.5 30.7373 548.2 26.4973 548.2C21.6973 548.2 17.5573 547.2 14.0773 545.2C10.5973 543.2 7.89734 540.36 5.97734 536.68C4.09734 532.96 3.15734 528.56 3.15734 523.48C3.15734 518.56 4.07734 514.26 5.91734 510.58C7.79734 506.9 10.3973 504.04 13.7173 502C17.0373 499.96 20.8573 498.94 25.1773 498.94C29.6973 498.94 33.5173 499.78 36.6373 501.46C39.7973 503.1 42.0573 505.32 43.4173 508.12L41.4973 509.92C39.7773 506.96 37.5173 504.88 34.7173 503.68C31.9173 502.44 28.7373 501.82 25.1773 501.82C21.3773 501.82 18.0373 502.72 15.1573 504.52C12.2773 506.32 10.0373 508.86 8.43734 512.14C6.83734 515.38 6.03734 519.16 6.03734 523.48C6.03734 527.96 6.85734 531.84 8.49734 535.12C10.1773 538.4 12.5373 540.94 15.5773 542.74C18.6573 544.5 22.2973 545.38 26.4973 545.38C33.4573 545.38 38.3773 543.36 41.2573 539.32V523.12H24.4573ZM24.4573 529.36V526.48H37.5973V536.62C36.5573 538.3 35.1173 539.64 33.2773 540.64C31.4373 541.64 29.1773 542.14 26.4973 542.14C23.8173 542.14 21.3373 541.42 19.0573 539.98C16.7773 538.54 14.9573 536.44 13.5973 533.68C12.2373 530.88 11.5573 527.48 11.5573 523.48C11.5573 519.56 12.1973 516.26 13.4773 513.58C14.7973 510.86 16.5773 508.8 18.8173 507.4C21.0573 506 23.5773 505.3 26.3773 505.3C28.7373 505.3 31.0373 505.86 33.2773 506.98C35.5173 508.06 37.3973 509.86 38.9173 512.38L36.6973 514.48C35.6573 512.52 34.2573 510.98 32.4973 509.86C30.7773 508.74 28.7373 508.18 26.3773 508.18C24.0573 508.18 21.9973 508.78 20.1973 509.98C18.3973 511.18 16.9773 512.92 15.9373 515.2C14.9373 517.48 14.4373 520.24 14.4373 523.48C14.4373 526.8 14.9773 529.64 16.0573 532C17.1373 534.36 18.5773 536.16 20.3773 537.4C22.2173 538.64 24.2573 539.26 26.4973 539.26C28.5373 539.26 30.2573 538.94 31.6573 538.3C33.0573 537.62 34.0773 536.78 34.7173 535.78V529.36H24.4573ZM72.9997 515.74C70.5597 515.74 68.4397 515.98 66.6397 516.46C64.8397 516.94 63.2397 517.76 61.8397 518.92C60.4397 520.08 59.1397 521.72 57.9397 523.84V513.58H60.8197V516.88C62.0197 515.44 63.4797 514.42 65.1997 513.82C66.9597 513.18 69.3997 512.84 72.5197 512.8L72.9997 515.74ZM51.7597 513.58H54.6397V547H51.7597V513.58ZM59.3797 525.1C60.6197 522.74 62.1197 521.06 63.8797 520.06C65.6797 519.02 67.9797 518.5 70.7797 518.5C71.2197 518.5 71.6597 518.52 72.0997 518.56C72.5397 518.56 72.9997 518.58 73.4797 518.62L74.0197 521.74C73.3397 521.58 72.6597 521.48 71.9797 521.44C71.3397 521.36 70.7197 521.32 70.1197 521.32C66.1997 521.32 63.5797 522.8 62.2597 525.76V547H59.3797V525.1ZM109.551 540.88C107.591 543.2 105.451 544.92 103.131 546.04C100.811 547.16 97.7714 547.72 94.0114 547.72C90.6114 547.72 87.6314 547.02 85.0714 545.62C82.5114 544.18 80.5114 542.16 79.0714 539.56C77.6714 536.92 76.9714 533.82 76.9714 530.26C76.9714 527.06 77.6114 524.14 78.8914 521.5C80.2114 518.86 82.1114 516.76 84.5914 515.2C87.1114 513.6 90.1714 512.8 93.7714 512.8C97.0914 512.8 99.9514 513.52 102.351 514.96C104.751 516.36 106.611 518.36 107.931 520.96C109.251 523.52 109.911 526.58 109.911 530.14C109.911 530.34 109.891 530.56 109.851 530.8C109.851 531 109.851 531.22 109.851 531.46L86.6914 534.34C87.0114 535.86 87.9114 537.1 89.3914 538.06C90.9114 539.02 92.7114 539.5 94.7914 539.5C96.7514 539.5 98.5914 539.1 100.311 538.3C102.031 537.5 103.431 536.32 104.511 534.76L106.371 537.04C104.691 538.92 102.931 540.28 101.091 541.12C99.2514 541.96 97.1514 542.38 94.7914 542.38C91.9914 542.38 89.5514 541.56 87.4714 539.92C85.4314 538.24 84.0314 535.54 83.2714 531.82L106.971 528.88C106.731 524.8 105.451 521.58 103.131 519.22C100.811 516.86 97.6914 515.68 93.7714 515.68C90.7714 515.68 88.2314 516.34 86.1514 517.66C84.0714 518.98 82.4914 520.74 81.4114 522.94C80.3714 525.14 79.8514 527.58 79.8514 530.26C79.8514 533.22 80.4314 535.8 81.5914 538C82.7514 540.2 84.3914 541.9 86.5114 543.1C88.6314 544.3 91.1314 544.9 94.0114 544.9C96.2914 544.9 98.2314 544.66 99.8314 544.18C101.471 543.7 102.911 543 104.151 542.08C105.431 541.16 106.631 540.04 107.751 538.72L109.551 540.88ZM83.1514 529.54C83.5914 525.62 84.7514 522.74 86.6314 520.9C88.5114 519.02 90.8714 518.08 93.7114 518.08C96.3114 518.08 98.4314 518.86 100.071 520.42C101.711 521.98 102.751 524.16 103.191 526.96L83.1514 529.54ZM99.8914 524.8C99.7714 523.88 99.1514 523.02 98.0314 522.22C96.9114 521.38 95.4714 520.96 93.7114 520.96C92.3514 520.96 91.1314 521.24 90.0514 521.8C88.9714 522.32 88.1114 523.02 87.4714 523.9C86.8314 524.74 86.4514 525.62 86.3314 526.54L99.8914 524.8ZM146.934 540.88C144.974 543.2 142.834 544.92 140.514 546.04C138.194 547.16 135.154 547.72 131.394 547.72C127.994 547.72 125.014 547.02 122.454 545.62C119.894 544.18 117.894 542.16 116.454 539.56C115.054 536.92 114.354 533.82 114.354 530.26C114.354 527.06 114.994 524.14 116.274 521.5C117.594 518.86 119.494 516.76 121.974 515.2C124.494 513.6 127.554 512.8 131.154 512.8C134.474 512.8 137.334 513.52 139.734 514.96C142.134 516.36 143.994 518.36 145.314 520.96C146.634 523.52 147.294 526.58 147.294 530.14C147.294 530.34 147.274 530.56 147.234 530.8C147.234 531 147.234 531.22 147.234 531.46L124.074 534.34C124.394 535.86 125.294 537.1 126.774 538.06C128.294 539.02 130.094 539.5 132.174 539.5C134.134 539.5 135.974 539.1 137.694 538.3C139.414 537.5 140.814 536.32 141.894 534.76L143.754 537.04C142.074 538.92 140.314 540.28 138.474 541.12C136.634 541.96 134.534 542.38 132.174 542.38C129.374 542.38 126.934 541.56 124.854 539.92C122.814 538.24 121.414 535.54 120.654 531.82L144.354 528.88C144.114 524.8 142.834 521.58 140.514 519.22C138.194 516.86 135.074 515.68 131.154 515.68C128.154 515.68 125.614 516.34 123.534 517.66C121.454 518.98 119.874 520.74 118.794 522.94C117.754 525.14 117.234 527.58 117.234 530.26C117.234 533.22 117.814 535.8 118.974 538C120.134 540.2 121.774 541.9 123.894 543.1C126.014 544.3 128.514 544.9 131.394 544.9C133.674 544.9 135.614 544.66 137.214 544.18C138.854 543.7 140.294 543 141.534 542.08C142.814 541.16 144.014 540.04 145.134 538.72L146.934 540.88ZM120.534 529.54C120.974 525.62 122.134 522.74 124.014 520.9C125.894 519.02 128.254 518.08 131.094 518.08C133.694 518.08 135.814 518.86 137.454 520.42C139.094 521.98 140.134 524.16 140.574 526.96L120.534 529.54ZM137.274 524.8C137.154 523.88 136.534 523.02 135.414 522.22C134.294 521.38 132.854 520.96 131.094 520.96C129.734 520.96 128.514 521.24 127.434 521.8C126.354 522.32 125.494 523.02 124.854 523.9C124.214 524.74 123.834 525.62 123.714 526.54L137.274 524.8ZM182.937 525.04C182.937 523.32 182.557 521.76 181.797 520.36C181.037 518.92 179.957 517.78 178.557 516.94C177.197 516.1 175.557 515.68 173.637 515.68C172.117 515.68 170.597 515.82 169.077 516.1C167.557 516.38 166.057 517.02 164.577 518.02C163.097 519.02 161.637 520.62 160.197 522.82V513.58H163.077V516.64C163.917 515.44 165.197 514.5 166.917 513.82C168.677 513.14 170.917 512.8 173.637 512.8C176.117 512.8 178.257 513.36 180.057 514.48C181.897 515.56 183.317 517.04 184.317 518.92C185.317 520.76 185.817 522.8 185.817 525.04V547H182.937V525.04ZM153.537 513.58H156.417V547H153.537V513.58ZM175.257 526.84C175.257 525.16 174.817 523.88 173.937 523C173.057 522.08 171.917 521.62 170.517 521.62C169.037 521.62 167.697 522.02 166.497 522.82C165.297 523.62 164.477 524.76 164.037 526.24V547H161.157V525.88C161.837 523.52 163.017 521.74 164.697 520.54C166.417 519.34 168.357 518.74 170.517 518.74C172.757 518.74 174.577 519.44 175.977 520.84C177.417 522.2 178.137 524.2 178.137 526.84V547H175.257V526.84ZM223.832 529.12H234.992C238.992 529.12 242.132 527.94 244.412 525.58C246.692 523.22 247.832 520.04 247.832 516.04C247.832 513.52 247.312 511.3 246.272 509.38C245.232 507.42 243.772 505.88 241.892 504.76C240.012 503.64 237.772 503.08 235.172 503.08H218.672V547H215.792V500.2H235.172C238.332 500.2 241.072 500.88 243.392 502.24C245.712 503.6 247.512 505.48 248.792 507.88C250.072 510.24 250.712 512.96 250.712 516.04C250.712 520.96 249.312 524.86 246.512 527.74C243.712 530.58 239.872 532 234.992 532H226.712V547H223.832V529.12ZM223.652 506.5H232.712C235.552 506.5 237.912 507.28 239.792 508.84C241.712 510.4 242.672 512.82 242.672 516.1C242.672 518.26 242.232 520.06 241.352 521.5C240.472 522.9 239.272 523.96 237.752 524.68C236.272 525.36 234.612 525.7 232.772 525.7H223.652V506.5ZM232.772 522.82C234.732 522.82 236.392 522.28 237.752 521.2C239.112 520.08 239.792 518.38 239.792 516.1C239.792 513.78 239.112 512.08 237.752 511C236.392 509.92 234.712 509.38 232.712 509.38H226.532V522.82H232.772ZM290.667 530.32C290.667 533.84 289.967 536.9 288.567 539.5C287.167 542.1 285.147 544.12 282.507 545.56C279.907 547 276.787 547.72 273.147 547.72C269.507 547.72 266.367 547 263.727 545.56C261.087 544.12 259.047 542.1 257.607 539.5C256.207 536.9 255.507 533.84 255.507 530.32C255.507 526.76 256.207 523.68 257.607 521.08C259.047 518.44 261.087 516.4 263.727 514.96C266.367 513.52 269.507 512.8 273.147 512.8C276.787 512.8 279.907 513.52 282.507 514.96C285.147 516.4 287.167 518.44 288.567 521.08C289.967 523.68 290.667 526.76 290.667 530.32ZM287.787 530.32C287.787 527.36 287.187 524.78 285.987 522.58C284.827 520.38 283.147 518.68 280.947 517.48C278.787 516.28 276.187 515.68 273.147 515.68C270.107 515.68 267.487 516.28 265.287 517.48C263.087 518.68 261.387 520.38 260.187 522.58C258.987 524.78 258.387 527.36 258.387 530.32C258.387 533.24 258.987 535.8 260.187 538C261.387 540.2 263.087 541.9 265.287 543.1C267.487 544.3 270.107 544.9 273.147 544.9C276.187 544.9 278.787 544.3 280.947 543.1C283.147 541.9 284.827 540.2 285.987 538C287.187 535.8 287.787 533.24 287.787 530.32ZM273.147 542.38C270.267 542.38 267.907 541.32 266.067 539.2C264.227 537.08 263.307 534.12 263.307 530.32C263.307 526.52 264.227 523.58 266.067 521.5C267.907 519.38 270.267 518.32 273.147 518.32C276.027 518.32 278.367 519.38 280.167 521.5C281.967 523.58 282.867 526.52 282.867 530.32C282.867 534.2 281.967 537.18 280.167 539.26C278.367 541.34 276.027 542.38 273.147 542.38ZM273.147 539.5C275.267 539.5 276.927 538.68 278.127 537.04C279.367 535.4 279.987 533.16 279.987 530.32C279.987 527.48 279.367 525.26 278.127 523.66C276.927 522.02 275.267 521.2 273.147 521.2C271.027 521.2 269.327 522.02 268.047 523.66C266.807 525.26 266.187 527.48 266.187 530.32C266.187 533.12 266.807 535.36 268.047 537.04C269.327 538.68 271.027 539.5 273.147 539.5ZM305.013 500.2H307.893V509.56H305.013V500.2ZM297.033 500.2H299.913V509.56H297.033V500.2ZM304.893 513.58H307.773V547H304.893V513.58ZM297.213 513.58H300.093V547H297.213V513.58ZM342.296 520.3C340.336 518.46 338.296 517.24 336.176 516.64C334.056 516 331.816 515.68 329.456 515.68C325.856 515.68 323.016 516.34 320.936 517.66C318.896 518.94 317.876 520.68 317.876 522.88C317.876 526.92 321.096 529.58 327.536 530.86C330.056 531.38 331.956 531.98 333.236 532.66C334.516 533.3 335.376 534.02 335.816 534.82C336.256 535.58 336.476 536.44 336.476 537.4C336.476 538.84 336.016 540.06 335.096 541.06C334.176 542.02 332.436 542.5 329.876 542.5C327.916 542.5 325.736 541.98 323.336 540.94C320.976 539.86 318.836 538.44 316.916 536.68L318.416 534.1C319.416 535.18 320.596 536.14 321.956 536.98C323.316 537.78 324.696 538.42 326.096 538.9C327.496 539.38 328.756 539.62 329.876 539.62C331.196 539.62 332.136 539.44 332.696 539.08C333.296 538.72 333.596 538.16 333.596 537.4C333.596 536.44 333.136 535.72 332.216 535.24C331.336 534.72 329.596 534.2 326.996 533.68C322.756 532.8 319.696 531.44 317.816 529.6C315.936 527.76 314.996 525.52 314.996 522.88C314.996 520.04 316.236 517.66 318.716 515.74C321.236 513.78 324.816 512.8 329.456 512.8C332.536 512.8 335.336 513.26 337.856 514.18C340.376 515.1 342.316 516.36 343.676 517.96L342.296 520.3ZM339.596 524.86C338.276 523.46 336.696 522.4 334.856 521.68C333.056 520.92 331.196 520.54 329.276 520.54C327.916 520.54 326.956 520.72 326.396 521.08C325.876 521.44 325.616 521.96 325.616 522.64C325.616 523.12 325.736 523.52 325.976 523.84C326.256 524.16 326.796 524.46 327.596 524.74C328.436 524.98 329.656 525.26 331.256 525.58C335.856 526.46 339.196 527.88 341.276 529.84C343.356 531.8 344.396 534.32 344.396 537.4C344.396 540.72 343.116 543.28 340.556 545.08C338.036 546.84 334.336 547.72 329.456 547.72C326.496 547.72 323.596 547.22 320.756 546.22C317.956 545.18 315.696 543.62 313.976 541.54L315.356 539.26C317.636 541.46 319.956 542.96 322.316 543.76C324.676 544.52 327.056 544.9 329.456 544.9C333.256 544.9 336.216 544.3 338.336 543.1C340.456 541.9 341.516 540 341.516 537.4C341.516 534.96 340.636 533.04 338.876 531.64C337.116 530.2 334.396 529.12 330.716 528.4C328.196 527.88 326.376 527.32 325.256 526.72C324.136 526.12 323.436 525.48 323.156 524.8C322.876 524.08 322.736 523.36 322.736 522.64C322.736 521.76 322.916 520.96 323.276 520.24C323.636 519.48 324.276 518.86 325.196 518.38C326.156 517.9 327.516 517.66 329.276 517.66C331.236 517.66 333.236 518.02 335.276 518.74C337.316 519.46 339.256 520.66 341.096 522.34L339.596 524.86ZM384.065 530.32C384.065 533.84 383.365 536.9 381.965 539.5C380.565 542.1 378.545 544.12 375.905 545.56C373.305 547 370.185 547.72 366.545 547.72C362.905 547.72 359.765 547 357.125 545.56C354.485 544.12 352.445 542.1 351.005 539.5C349.605 536.9 348.905 533.84 348.905 530.32C348.905 526.76 349.605 523.68 351.005 521.08C352.445 518.44 354.485 516.4 357.125 514.96C359.765 513.52 362.905 512.8 366.545 512.8C370.185 512.8 373.305 513.52 375.905 514.96C378.545 516.4 380.565 518.44 381.965 521.08C383.365 523.68 384.065 526.76 384.065 530.32ZM381.185 530.32C381.185 527.36 380.585 524.78 379.385 522.58C378.225 520.38 376.545 518.68 374.345 517.48C372.185 516.28 369.585 515.68 366.545 515.68C363.505 515.68 360.885 516.28 358.685 517.48C356.485 518.68 354.785 520.38 353.585 522.58C352.385 524.78 351.785 527.36 351.785 530.32C351.785 533.24 352.385 535.8 353.585 538C354.785 540.2 356.485 541.9 358.685 543.1C360.885 544.3 363.505 544.9 366.545 544.9C369.585 544.9 372.185 544.3 374.345 543.1C376.545 541.9 378.225 540.2 379.385 538C380.585 535.8 381.185 533.24 381.185 530.32ZM366.545 542.38C363.665 542.38 361.305 541.32 359.465 539.2C357.625 537.08 356.705 534.12 356.705 530.32C356.705 526.52 357.625 523.58 359.465 521.5C361.305 519.38 363.665 518.32 366.545 518.32C369.425 518.32 371.765 519.38 373.565 521.5C375.365 523.58 376.265 526.52 376.265 530.32C376.265 534.2 375.365 537.18 373.565 539.26C371.765 541.34 369.425 542.38 366.545 542.38ZM366.545 539.5C368.665 539.5 370.325 538.68 371.525 537.04C372.765 535.4 373.385 533.16 373.385 530.32C373.385 527.48 372.765 525.26 371.525 523.66C370.325 522.02 368.665 521.2 366.545 521.2C364.425 521.2 362.725 522.02 361.445 523.66C360.205 525.26 359.585 527.48 359.585 530.32C359.585 533.12 360.205 535.36 361.445 537.04C362.725 538.68 364.425 539.5 366.545 539.5ZM419.832 525.04C419.832 523.32 419.452 521.76 418.692 520.36C417.932 518.92 416.852 517.78 415.452 516.94C414.092 516.1 412.452 515.68 410.532 515.68C409.012 515.68 407.492 515.82 405.972 516.1C404.452 516.38 402.952 517.02 401.472 518.02C399.992 519.02 398.532 520.62 397.092 522.82V513.58H399.972V516.64C400.812 515.44 402.092 514.5 403.812 513.82C405.572 513.14 407.812 512.8 410.532 512.8C413.012 512.8 415.152 513.36 416.952 514.48C418.792 515.56 420.212 517.04 421.212 518.92C422.212 520.76 422.712 522.8 422.712 525.04V547H419.832V525.04ZM390.432 513.58H393.312V547H390.432V513.58ZM412.152 526.84C412.152 525.16 411.712 523.88 410.832 523C409.952 522.08 408.812 521.62 407.412 521.62C405.932 521.62 404.592 522.02 403.392 522.82C402.192 523.62 401.372 524.76 400.932 526.24V547H398.052V525.88C398.732 523.52 399.912 521.74 401.592 520.54C403.312 519.34 405.252 518.74 407.412 518.74C409.652 518.74 411.472 519.44 412.872 520.84C414.312 522.2 415.032 524.2 415.032 526.84V547H412.152V526.84Z" fill="#B1F83C"/>
<path d="M210.272 242.07C188.214 242.07 168.253 245.5 154.426 250.693C147.513 253.289 142.164 256.354 138.938 259.218C136.003 261.825 135.006 263.87 134.848 265.532H134.649C134.649 277.04 140.482 288.02 150.275 296.94C149.898 296.778 149.509 296.62 149.137 296.453C141.123 292.869 134.433 288.671 129.424 283.742C127.758 282.102 126.256 280.343 124.988 278.478C119.4 287.581 115.713 297.665 115.713 309.326C115.713 361.642 158.106 404.654 210.232 404.654C262.357 404.654 305.208 361.644 305.208 309.328C305.208 297.538 301.53 287.219 295.952 277.887C294.606 279.973 292.964 281.929 291.121 283.742C286.112 288.671 279.422 292.867 271.408 296.454C271.076 296.602 270.73 296.742 270.395 296.889C280.152 287.977 285.962 277.018 285.962 265.533H285.697C285.541 263.871 284.542 261.826 281.607 259.221C278.382 256.356 273.033 253.289 266.12 250.695C252.292 245.502 232.33 242.072 210.272 242.072V242.07Z" fill="#B1F83C"/>
<circle cx="177" cy="336" r="6" fill="#275026"/>
<circle cx="183" cy="375" r="6" fill="#275026"/>
<circle cx="145" cy="359" r="2" fill="#275026"/>
<circle cx="243" cy="310" r="4" fill="#275026"/>
<circle cx="232" cy="387" r="8" fill="#275026"/>
<circle cx="260" cy="361" r="6" fill="#275026"/>
<circle cx="224.5" cy="347.5" r="2.5" fill="#275026"/>
<circle cx="151" cy="310" r="6" fill="#275026"/>
<circle cx="175" cy="278" r="2" fill="#275026"/>
<circle cx="283" cy="317" r="3" fill="#275026"/>
<circle cx="252" cy="280" r="3" fill="#275026"/>
<circle cx="199" cy="302" r="5" fill="#275026"/>
<circle cx="210" cy="260" r="7" fill="#275026"/>
<circle cx="175" cy="229" r="1.5" stroke="#B1F83C"/>
<circle cx="237" cy="228" r="2.5" stroke="#B1F83C"/>
<circle cx="214" cy="224" r="5.5" stroke="#B1F83C"/>
<circle cx="189" cy="210" r="5.5" stroke="#B1F83C"/>
<circle cx="220" cy="198" r="1.5" stroke="#B1F83C"/>
<circle cx="202" cy="185" r="1.5" stroke="#B1F83C"/>
<circle cx="220" cy="173" r="4.5" stroke="#B1F83C"/>
<circle cx="202" cy="161" r="2.5" stroke="#B1F83C"/>
</svg>
