<svg width="21" height="21" viewBox="0 0 21 21" fill="none" xmlns="http://www.w3.org/2000/svg">
<g id="material-symbols:phone-enabled-sharp">
<path id="Vector" d="M4.20233 17.839H3.33716V12.8869L7.45701 12.0229L9.84652 14.4674C10.3958 14.1443 10.9075 13.7964 11.3816 13.4239C11.8556 13.0513 12.2915 12.6616 12.6892 12.2547C13.1149 11.8333 13.5132 11.3767 13.884 10.885C14.2548 10.3933 14.5912 9.87352 14.8933 9.32563L12.545 6.90226L13.3072 2.66663H18.1686V3.55168C18.1686 5.3218 17.7978 7.06382 17.0563 8.77774C16.3147 10.4917 15.2573 12.051 13.884 13.4559C12.5107 14.8608 10.9828 15.9425 9.30023 16.7011C7.61768 17.4597 5.91838 17.839 4.20233 17.839Z" fill="white"/>
</g>
</svg>
