<svg width="12" height="12" viewBox="0 0 12 12" fill="none" xmlns="http://www.w3.org/2000/svg">
<path d="M8.31459 6.94548L8.54259 6.71898L8.01309 6.18698L7.78609 6.41348L8.31459 6.94548ZM9.30709 6.62398L10.2626 7.14348L10.6201 6.48448L9.66509 5.96548L9.30709 6.62398ZM10.4461 8.17548L9.73609 8.88198L10.2646 9.41348L10.9746 8.70748L10.4461 8.17548ZM9.30309 9.10898C8.57809 9.17698 6.70309 9.11648 4.67209 7.09748L4.14309 7.62898C6.35909 9.83248 8.46859 9.94048 9.37309 9.85598L9.30309 9.10898ZM4.67209 7.09748C2.73659 5.17248 2.41559 3.55398 2.37559 2.85148L1.62659 2.89398C1.67659 3.77798 2.07409 5.57198 4.14309 7.62898L4.67209 7.09748ZM5.35959 4.00748L5.50309 3.86448L4.97509 3.33298L4.83159 3.47548L5.35959 4.00748ZM5.61709 2.04698L4.98709 1.20498L4.38659 1.65498L5.01659 2.49648L5.61709 2.04698ZM2.86659 1.02148L2.08159 1.80148L2.61059 2.33348L3.39509 1.55348L2.86659 1.02148ZM5.09559 3.74148C4.83059 3.47548 4.83059 3.47548 4.83059 3.47648H4.82959L4.82809 3.47848C4.80448 3.50257 4.78322 3.52886 4.76459 3.55698C4.73759 3.59698 4.70809 3.64948 4.68309 3.71598C4.6222 3.88764 4.60704 4.07219 4.63909 4.25148C4.70609 4.68398 5.00409 5.25548 5.76709 6.01448L6.29609 5.48248C5.58159 4.77248 5.41159 4.34048 5.38009 4.13648C5.36509 4.03948 5.38059 3.99148 5.38509 3.98048C5.38759 3.97348 5.38859 3.97298 5.38509 3.97748C5.38068 3.98441 5.37566 3.99094 5.37009 3.99698L5.36509 4.00198C5.36347 4.00353 5.3618 4.00504 5.36009 4.00648L5.09559 3.74148ZM5.76709 6.01448C6.53059 6.77348 7.10509 7.06948 7.53809 7.13548C7.75959 7.16948 7.93809 7.14248 8.07359 7.09198C8.14936 7.06394 8.22023 7.02411 8.28359 6.97398C8.29219 6.96679 8.30053 6.95928 8.30859 6.95148L8.31209 6.94848L8.31359 6.94698L8.31409 6.94598C8.31409 6.94598 8.31459 6.94548 8.05009 6.67948C7.78509 6.41348 7.78659 6.41298 7.78659 6.41298L7.78759 6.41198L7.78859 6.41098L7.79159 6.40848L7.79659 6.40348C7.8026 6.39808 7.80894 6.39307 7.81559 6.38848C7.82059 6.38498 7.81909 6.38648 7.81209 6.38948C7.79959 6.39398 7.75059 6.40948 7.65209 6.39448C7.44509 6.36248 7.01009 6.19248 6.29609 5.48248L5.76709 6.01448ZM4.98709 1.20448C4.47709 0.52448 3.47509 0.41648 2.86659 1.02148L3.39509 1.55348C3.66109 1.28898 4.13309 1.31648 4.38659 1.65498L4.98709 1.20448ZM2.37609 2.85198C2.36609 2.67898 2.44559 2.49798 2.61059 2.33398L2.08109 1.80198C1.81259 2.06898 1.60109 2.44698 1.62659 2.89398L2.37609 2.85198ZM9.73609 8.88198C9.59909 9.01898 9.45109 9.09598 9.30359 9.10948L9.37309 9.85598C9.74059 9.82148 10.0411 9.63648 10.2651 9.41398L9.73609 8.88198ZM5.50309 3.86448C5.99559 3.37498 6.03209 2.60148 5.61759 2.04748L5.01709 2.49698C5.21859 2.76648 5.18859 3.11998 4.97459 3.33348L5.50309 3.86448ZM10.2631 7.14398C10.6716 7.36598 10.7351 7.88898 10.4466 8.17598L10.9756 8.70748C11.6456 8.04098 11.4391 6.92948 10.6206 6.48498L10.2631 7.14398ZM8.54259 6.71948C8.73459 6.52848 9.04359 6.48148 9.30759 6.62448L9.66559 5.96598C9.12359 5.67098 8.45159 5.75248 8.01359 6.18748L8.54259 6.71948Z" fill="white"/>
</svg>
