<svg width="21" height="21" viewBox="0 0 21 21" fill="none" xmlns="http://www.w3.org/2000/svg">
<g id="solar:map-point-linear">
<g clip-path="url(#clip0_1_2851)">
<g id="Group">
<path id="Vector" d="M4.16089 8.68768C4.16089 4.89711 7.11235 1.82385 10.7526 1.82385C14.3929 1.82385 17.3444 4.89711 17.3444 8.68768C17.3444 12.4488 15.2408 16.8386 11.9581 18.4073C11.5808 18.588 11.1693 18.6817 10.7526 18.6817C10.336 18.6817 9.92449 18.588 9.54718 18.4073C6.26448 16.8378 4.16089 12.4488 4.16089 8.68853V8.68768Z" stroke="white" stroke-width="2"/>
<path id="Vector_2" d="M10.7529 11.0959C12.1181 11.0959 13.2248 9.96377 13.2248 8.56719C13.2248 7.17061 12.1181 6.03845 10.7529 6.03845C9.38772 6.03845 8.28101 7.17061 8.28101 8.56719C8.28101 9.96377 9.38772 11.0959 10.7529 11.0959Z" stroke="white" stroke-width="2"/>
</g>
</g>
</g>
<defs>
<clipPath id="clip0_1_2851">
<rect x="0.865234" y="0.137939" width="19.7753" height="20.2299" rx="7" fill="white"/>
</clipPath>
</defs>
</svg>
