<svg width="164" height="226" viewBox="0 0 164 226" fill="none" xmlns="http://www.w3.org/2000/svg">
<path d="M74.9241 -39.8066C63.6062 -38.5938 56.5187 -35.9572 55.6397 -32.5823C55.31 -31.3695 55.7495 -27.0982 57.5077 -15.1807C57.7274 -13.5987 57.6175 -13.4933 53.0025 -11.4367C46.7392 -8.58917 46.0799 -7.58725 46.1348 -0.78479C46.1348 8.28516 46.904 14.4021 48.1127 15.9841C49.1016 17.3024 52.0135 19.4644 53.2772 19.8863C53.9914 20.0972 52.4531 28.3761 50.8598 32.542C48.8269 37.9734 44.8162 43.774 36.9046 53.0021C17.84 75.0969 11.0273 86.2234 5.14853 104.891C0.533459 119.55 -0.785133 131.415 0.423577 146.866C1.85205 165.164 5.86277 183.356 14.983 213.572C21.7408 236.088 27.8943 252.277 31.85 258.183C34.4872 262.033 38.9375 265.46 45.2557 268.413C50.8048 271.05 53.8266 271.788 65.3093 273.476C72.3418 274.53 75.4185 274.688 91.1318 274.688C106.955 274.688 109.922 274.583 116.954 273.528C128.492 271.788 131.459 271.05 137.118 268.413C142.941 265.671 147.941 261.927 150.304 258.447C157.391 248.164 174.258 194.799 179.258 166.904C181.455 154.564 182.005 148.342 182.005 136.319C182.06 123.716 181.346 118.97 177.609 106.367C172.005 87.489 164.863 75.6242 145.798 53.5294C137.722 44.1431 133.656 38.2898 131.514 32.7529C129.865 28.5871 128.217 20.1499 128.986 19.8863C130.25 19.4644 133.162 17.3024 134.151 15.9841C135.415 14.3494 136.074 8.8652 136.129 -0.257477C136.184 -7.63998 135.634 -8.53644 129.316 -11.384C126.734 -12.5441 124.646 -13.8097 124.646 -14.1788C124.646 -14.5479 125.14 -17.9228 125.745 -21.6667C126.349 -25.4107 126.844 -29.4711 126.844 -30.684C126.844 -35.008 122.998 -37.3282 112.834 -39.0684C107.065 -40.0703 82.0665 -40.5449 74.9241 -39.8066ZM87.8353 -35.5881C89.1539 -35.5881 90.1978 -35.9572 90.8571 -36.6427C91.7361 -37.5919 92.5603 -37.6974 97.9995 -37.6974C103.439 -37.6974 104.263 -37.5919 105.142 -36.6427C106.351 -35.3771 109.098 -35.2717 110.801 -36.4318C111.9 -37.17 112.559 -37.17 115.526 -36.6427C120.086 -35.8517 122.448 -34.4807 122.448 -32.6878C122.448 -31.0531 120.635 -30.2094 115.526 -29.3129C112.724 -28.7856 111.9 -28.8383 110.416 -29.5766C108.273 -30.5785 105.471 -30.2094 104.043 -28.7329C103.164 -27.7837 102.34 -27.6782 95.0876 -27.6782H87.176L85.2531 -29.2602C83.6598 -30.6312 83.0005 -30.8422 80.1435 -30.8422C77.5063 -30.8422 76.6273 -30.6312 75.2537 -29.5239L73.6055 -28.1528L68.5509 -28.9966C61.7931 -30.1566 59.7053 -31.0004 59.9251 -32.5296C60.035 -33.3733 60.8041 -33.9534 62.6721 -34.6389C64.2654 -35.2189 65.4192 -35.3771 65.584 -35.0608C66.1884 -34.1643 69.3201 -34.4807 70.4738 -35.5881C71.4078 -36.3791 72.8912 -36.6954 77.3964 -37.0118C82.506 -37.4337 83.3301 -37.381 84.4839 -36.5373C85.1981 -36.0099 86.6815 -35.5881 87.8353 -35.5881ZM62.4524 -29.5766C63.716 -29.102 66.9026 -28.4692 69.4299 -28.1528C73.3857 -27.6255 74.045 -27.3618 74.2098 -26.4654C74.8142 -22.5632 85.1981 -21.7195 86.4068 -25.4635C86.7365 -26.3599 87.6155 -26.5181 95.0876 -26.7818C102.34 -27.0982 103.549 -27.0454 104.373 -26.3072C104.922 -25.8326 106.405 -25.4107 107.669 -25.358C109.427 -25.358 110.196 -25.6217 111.13 -26.6236C112.009 -27.6255 113.273 -28.1528 116.075 -28.6274C120.196 -29.3657 122.998 -30.5258 122.998 -31.4749C122.998 -31.9496 123.163 -31.9496 123.602 -31.5277C124.316 -30.8422 123.767 -25.4107 121.789 -13.2823C120.416 -4.68698 121.295 -5.47797 111.35 -4.15964C102.065 -2.89407 80.4182 -2.89407 70.9134 -4.15964C63.5512 -5.10883 61.4634 -5.68887 61.4634 -6.6908C61.4634 -7.05994 61.0788 -9.6438 60.6393 -12.3859C59.2108 -20.823 58.112 -30.4731 58.4417 -31.264C58.7164 -31.9496 58.8263 -31.9496 59.4306 -31.2113C59.7603 -30.7367 61.1338 -29.9984 62.4524 -29.5766ZM85.5278 -26.8872C86.7914 -26.4654 85.1981 -24.567 83.0005 -23.9342C80.3633 -23.196 76.6822 -24.0397 75.4735 -25.7271C75.034 -26.3599 74.6494 -26.9927 74.6494 -27.1509C74.6494 -27.4673 84.4289 -27.2036 85.5278 -26.8872ZM110.911 -27.2036C110.911 -26.5181 109.482 -26.0963 107.339 -26.0963C105.307 -26.0963 104.263 -26.94 105.801 -27.3091C107.559 -27.731 110.911 -27.6782 110.911 -27.2036ZM54.7057 -8.69461C53.8815 -6.63806 54.9254 -4.68698 57.6175 -3.21048L59.5405 -2.15582L58.0571 -3.896C57.178 -4.84518 56.5187 -6.11075 56.5187 -6.74353C56.5737 -7.69272 56.7934 -7.48178 57.6725 -5.95255C58.7164 -4.0542 60.1448 -3.10501 59.4855 -4.73972C59.046 -5.79434 59.3757 -5.74161 61.5733 -4.47604C66.518 -1.73398 90.4725 0.111664 103.878 -1.3121C112.724 -2.20856 118.602 -3.31595 120.69 -4.52878C122.998 -5.79434 123.163 -5.79434 122.723 -4.42331C122.119 -2.68314 123.382 -3.68506 124.646 -5.95255C125.47 -7.53452 125.69 -7.69272 125.745 -6.74353C125.745 -6.11075 125.086 -4.89789 124.316 -4.00146C122.393 -1.78671 123.767 -1.94489 126.075 -4.15964C127.997 -6.00528 128.382 -7.42905 127.338 -9.38016C126.899 -10.2766 127.063 -10.2238 128.162 -9.06375C129.975 -7.16537 129.975 -6.05801 128.107 -4.31784C120.855 2.32642 89.3187 4.85757 67.3422 0.586243C60.035 -0.837524 55.9144 -2.47223 54.0464 -4.58151C52.3981 -6.47986 52.3432 -7.11267 53.8266 -8.90555C55.31 -10.6985 55.4748 -10.6457 54.7057 -8.69461ZM53.3871 -4.0542C55.8594 -1.52304 61.0239 0.375336 70.5288 2.22095C77.7261 3.59198 104.537 3.59198 111.735 2.22095C124.206 -0.152008 130.14 -3.10501 130.14 -6.95447C130.14 -8.80008 130.14 -8.85281 131.239 -7.90363C133.547 -5.89981 131.788 -1.57578 127.668 0.638977C123.987 2.69556 117.339 4.4357 108.933 5.59583C101.955 6.54498 99.1532 6.65045 88.1649 6.43954C76.5174 6.22861 74.045 6.01767 65.0346 4.2775C63.716 4.01385 63.8259 4.11932 65.4742 4.75211C68.8805 6.01767 75.5284 7.01959 84.319 7.65237C98.384 8.60156 103.768 9.49802 106.021 11.2909C107.12 12.1346 107.23 12.5038 106.79 13.7693C106.021 15.8259 102.889 17.4078 96.9006 18.7789C86.0772 21.31 61.6832 20.519 58.3318 17.566C56.5187 15.9313 55.8045 13.242 55.7495 7.96878C55.6946 3.32834 55.7495 3.22287 57.0681 2.85373C58.3867 2.53735 58.3867 2.48462 57.3428 2.11548C51.574 -0.0992737 48.3325 -5.10883 50.9147 -7.79819C51.8487 -8.80008 51.8487 -8.80008 52.0135 -7.05994C52.1234 -6.05801 52.7278 -4.68698 53.3871 -4.0542ZM51.9036 6.0704C52.0685 9.70892 52.4531 13.4529 52.7278 14.4548L53.1673 16.2477L51.7938 14.9821C50.0356 13.4002 49.5412 11.3436 49.1016 3.43381L48.772 -3.15775L50.1455 -1.83942C51.4641 -0.573853 51.574 -0.0465393 51.9036 6.0704ZM133.217 3.01193C132.722 11.3964 132.393 12.7674 130.854 14.5076C128.986 16.6696 128.547 16.5114 129.096 13.8221C129.316 12.6092 129.536 9.12888 129.591 6.0704C129.591 0.638977 129.591 0.586243 131.349 -1.1539C132.338 -2.10309 133.217 -2.89407 133.327 -2.89407C133.437 -2.89407 133.382 -0.204742 133.217 3.01193ZM59.7603 21.7319C61.0239 22.0483 61.0788 22.1537 60.7492 26.5833C60.5844 29.0617 60.035 32.3838 59.5405 33.913C59.046 35.495 58.7713 36.866 58.8812 36.9715C59.4855 37.5516 61.6832 31.751 62.5073 27.5324C63.4963 22.2065 62.6721 22.5229 72.177 23.7357C75.5284 24.1576 79.4842 24.5267 81.0775 24.5267C82.6159 24.5267 84.0993 24.7904 84.2641 25.054C84.4289 25.3704 84.4289 29.6417 84.2092 34.5458C83.8246 43.5103 83.8246 43.5103 82.5609 43.5103H81.2423L81.1874 34.6513C81.1874 29.7999 80.9676 26.3196 80.7479 26.8996C80.5281 27.4797 79.649 31.171 78.77 35.0731C77.9458 38.9753 77.0668 42.4029 76.847 42.6139C76.3526 43.1412 66.6279 41.6119 63.4413 40.5573C62.2326 40.1354 61.4634 40.03 61.7931 40.3464C62.4524 40.9792 68.2212 42.983 69.375 42.983C70.8584 42.983 70.8584 43.9849 69.4849 46.3051C67.2323 49.9436 67.8366 50.3128 70.1991 46.7797C72.0122 44.0904 72.5616 43.6158 73.6604 43.8794C76.3526 44.4068 76.3526 44.5122 74.4845 46.8324C72.4517 49.3636 70.3639 53.6876 69.9244 56.2715C69.6497 57.8007 69.8695 57.5898 71.4078 54.9532C72.3968 53.2658 74.7593 50.3655 76.6822 48.5199L80.1984 45.0923H90.3077C95.8567 45.0923 100.692 44.9868 101.131 44.8286C101.626 44.6177 102.175 45.6196 102.889 48.098C103.494 50.0491 105.142 53.9513 106.57 56.6934C109.207 61.9138 115.251 71.6693 115.636 71.3529C115.746 71.2475 113.658 66.9762 110.966 61.9138C108.328 56.8516 105.471 50.9455 104.702 48.7835L103.329 44.8286L109.372 43.6685C112.669 43.0884 116.13 42.2447 117.009 41.9283C117.888 41.5592 118.712 41.3483 118.822 41.4538C118.877 41.5592 119.536 43.1939 120.251 45.0923C122.119 50.2073 125.195 55.1114 131.514 63.2322C134.59 67.2398 137.392 70.7201 137.722 71.0365C138.107 71.4057 139.48 71.4057 142.062 70.9838C146.952 70.1928 147.721 69.9292 147.721 69.1909C147.666 68.3999 144.81 64.7087 137.173 55.586C133.162 50.8401 130.36 46.8324 128.437 43.2466C126.899 40.3464 125.58 37.868 125.47 37.8152C125.36 37.7097 123.712 38.3425 121.789 39.239C116.24 41.8229 105.197 43.5103 93.6591 43.5103H88.7693L89.0989 37.5516C89.3187 34.3349 89.4835 30.169 89.4835 28.4289V25.2122L96.7907 24.8431C105.471 24.4212 116.625 23.1557 120.855 22.101C125.195 21.0464 125.195 21.0991 125.195 23.5775C125.195 26.636 126.954 33.4912 128.986 38.0789C131.294 43.4048 134.371 47.7289 142.832 57.4843C155.358 71.8275 160.962 79.5264 165.742 88.6491C173.819 104.152 178.049 121.343 178.104 138.956C178.104 149.66 176.785 159.943 172.939 178.241C168.819 198.121 156.897 237.038 151.622 247.848C146.897 257.498 140.469 262.666 128.712 266.199C111.57 271.366 70.8035 271.419 53.5519 266.199C42.5087 262.876 35.4212 257.392 31.1358 248.639C25.6417 237.618 14.1589 200.758 9.76361 180.403C2.89594 148.131 2.40147 131.415 7.8956 111.271C10.313 102.359 11.9613 97.93 15.8621 90.1783C20.8068 80.2647 28.9931 69.0327 40.5857 56.166C46.6842 49.3636 50.2554 44.5122 52.508 39.8718C54.6507 35.6005 56.9582 27.4797 57.1231 23.7884C57.2879 21.31 57.5077 21.1518 59.7603 21.7319Z" fill="#B1F83C" fill-opacity="0.2"/>
<path d="M64.8147 -1.10096C64.9246 -0.942767 68.1661 -0.30998 71.9021 0.322807C81.8465 2.06297 100.417 2.06297 110.361 0.322807C114.097 -0.30998 117.339 -0.942767 117.449 -1.10096C117.778 -1.41736 117.449 -1.36462 108.438 -0.257248C97.34 1.11379 84.5386 1.11379 73.8251 -0.257248C65.2542 -1.36462 64.4301 -1.47009 64.8147 -1.10096Z" fill="#B1F83C" fill-opacity="0.2"/>
<path d="M61.7382 17.1445C64.705 18.0409 78.0558 18.8319 83.9894 18.4628C94.9777 17.7773 94.0986 17.3554 81.5171 17.4081C74.5944 17.4081 66.9027 17.2499 64.4852 17.039C61.4635 16.7754 60.5844 16.8281 61.7382 17.1445Z" fill="#B1F83C" fill-opacity="0.2"/>
<path d="M119.427 23.525C117.668 23.9996 105.966 25.3179 97.9994 25.8979L93.0547 26.2671L97.0654 26.9526C105.856 28.4291 110.911 31.2766 110.911 34.7569C110.911 38.2373 105.252 41.243 97.7247 41.8231C95.1425 41.9813 94.0436 42.2449 94.7029 42.4559C96.7907 43.1941 110.801 41.7176 115.855 40.2411C119.701 39.081 124.646 36.7608 124.646 36.0753C124.646 35.8116 124.152 33.9132 123.602 31.8039C122.998 29.6947 122.393 26.8471 122.174 25.4233C122.009 24.0523 121.679 22.9449 121.459 22.9977C121.24 22.9977 120.361 23.2613 119.427 23.525Z" fill="#B1F83C" fill-opacity="0.2"/>
<path d="M72.8362 27.2688C72.4516 28.6398 71.3528 37.4989 71.3528 38.7644C71.4077 39.4499 71.4627 39.4499 71.8473 38.7644C72.3417 37.868 73.7153 26.636 73.3856 26.2669C73.2208 26.1614 73.001 26.636 72.8362 27.2688Z" fill="#B1F83C" fill-opacity="0.2"/>
<path d="M53.2223 44.4596C51.9037 46.6744 48.827 50.9984 46.4096 54.0569C43.9922 57.1154 39.9814 62.1777 37.4541 65.3943C33.0039 71.0367 29.0481 77.5755 29.0481 79.3157C29.0481 79.7902 30.092 78.3665 31.3007 76.2044C33.7181 71.9331 37.0695 67.4509 44.157 59.0665C46.5744 56.1662 49.761 52.0003 51.1345 49.8383C53.7168 45.9361 56.2441 40.9266 55.8595 40.6102C55.7496 40.5047 54.5958 42.2449 53.2223 44.4596Z" fill="#B1F83C" fill-opacity="0.2"/>
<path d="M114.207 48.5723C113.164 48.9414 111.9 49.2578 111.405 49.2578C110.966 49.3105 110.142 49.6269 109.647 49.9433C108.823 50.5761 108.878 50.9452 110.526 54.8474C111.515 57.1676 114.317 62.3881 116.79 66.4485C119.207 70.5089 121.899 75.1493 122.723 76.784L124.262 79.737L130.085 80.1061C133.272 80.3171 136.459 80.5807 137.173 80.7917C138.052 81.0026 138.382 80.8444 138.382 80.2643C138.382 79.7897 134.316 73.6201 129.316 66.4485C124.317 59.3296 119.482 52.158 118.548 50.5761C117.614 49.0468 116.68 47.7813 116.515 47.7813C116.295 47.834 115.251 48.1504 114.207 48.5723Z" fill="#B1F83C" fill-opacity="0.2"/>
<path d="M56.7933 81.003C44.1568 81.583 35.3113 82.4267 30.861 83.4814C27.5096 84.2724 27.125 84.536 27.125 85.6961C27.125 86.8035 27.5645 87.1199 30.2017 87.8581C44.7612 92.1295 106.021 93.395 137.557 90.1256C145.414 89.2819 151.238 88.28 153.93 87.3308C156.402 86.4344 155.743 84.5887 152.666 83.745C149.37 82.7959 136.843 81.6357 123.053 80.9502C110.361 80.3702 70.8583 80.3702 56.7933 81.003ZM96.0764 82.5849C97.5598 82.9013 98.8235 83.3759 98.8235 83.6396C98.8235 84.0614 97.1203 84.2196 91.2965 84.3251C89.4285 84.3778 88.989 83.2177 90.6922 82.5849C92.3954 81.8994 92.8349 81.8994 96.0764 82.5849ZM67.7816 83.5341C70.6386 84.1142 69.32 84.9051 64.9247 85.1688C60.1448 85.4852 59.2108 86.2762 62.2875 87.489C64.9796 88.5964 64.4851 89.5983 61.2436 89.8092C59.3756 89.9147 57.8372 89.5983 55.5297 88.5964C53.4419 87.6472 50.7498 87.0144 47.5632 86.698C44.8711 86.4344 42.1789 85.9071 41.5196 85.5907C40.4758 85.0106 40.9702 84.8524 45.5304 84.536C48.3873 84.3778 51.519 83.956 52.398 83.6923C54.2111 83.1122 65.1444 83.0068 67.7816 83.5341ZM127.393 83.5341C127.393 83.7978 126.734 84.1142 125.91 84.2196C125.031 84.3251 127.723 84.4306 131.788 84.4306C138.986 84.4306 141.678 84.7997 141.678 85.6961C141.678 85.9071 139.26 86.2234 136.348 86.4344C128.767 86.8562 124.646 87.489 125.91 88.0163C126.459 88.28 128.382 88.28 130.14 88.1218C133.821 87.7 134.535 88.3855 131.404 89.2292C129.261 89.8092 109.482 89.7565 108.878 89.1765C108.658 89.0183 109.482 88.8601 110.691 88.8601C111.845 88.8601 113.163 88.6491 113.603 88.3855C114.097 88.0691 112.174 87.8054 108.383 87.5945C101.131 87.1726 98.8235 86.8562 98.8235 86.2234C98.8235 85.6434 108.493 84.9579 111.515 85.3797C113.877 85.6961 113.768 85.5379 110.636 84.2724C109.922 84.0087 111.625 83.745 115.581 83.5868C126.074 83.0595 127.393 83.0595 127.393 83.5341ZM84.4289 84.2196C84.264 84.5887 83.4949 84.9051 82.6158 84.9051C81.7367 84.9051 80.9675 84.5887 80.8577 84.2196C80.6928 83.7978 81.2423 83.5868 82.6158 83.5868C83.9893 83.5868 84.5387 83.7978 84.4289 84.2196ZM149.919 85.1688C149.919 85.4325 149.699 85.6961 149.37 85.6961C149.095 85.6961 148.82 85.4325 148.82 85.1688C148.82 84.8524 149.095 84.6415 149.37 84.6415C149.699 84.6415 149.919 84.8524 149.919 85.1688ZM36.9595 85.4852C38.2781 85.9598 38.0034 86.7508 36.52 86.7508C35.0915 86.7508 34.3223 86.118 34.9267 85.4852C35.3662 85.0633 35.8607 85.0633 36.9595 85.4852ZM69.7046 87.8054C69.7046 88.0691 69.5947 88.3327 69.4848 88.3327C69.32 88.3327 69.0453 88.0691 68.8804 87.8054C68.7156 87.489 68.8255 87.2781 69.1002 87.2781C69.4299 87.2781 69.7046 87.489 69.7046 87.8054ZM139.205 87.8054C139.37 88.0691 139.26 88.3327 138.986 88.3327C138.656 88.3327 138.381 88.0691 138.381 87.8054C138.381 87.489 138.491 87.2781 138.601 87.2781C138.766 87.2781 139.041 87.489 139.205 87.8054ZM46.6292 88.3327C46.6292 88.5964 46.4094 88.8601 46.0798 88.8601C45.8051 88.8601 45.5304 88.5964 45.5304 88.3327C45.5304 88.0163 45.8051 87.8054 46.0798 87.8054C46.4094 87.8054 46.6292 88.0163 46.6292 88.3327ZM85.5826 88.5964C86.9562 89.3874 85.9123 89.8092 81.7917 90.1256C77.4513 90.4948 74.7592 89.9674 74.2647 88.5964C74.0449 87.9636 84.5937 87.9636 85.5826 88.5964ZM98.5488 89.3347C98.7136 89.5983 98.6037 89.9674 98.2741 90.1784C97.5049 90.653 95.4171 89.9674 95.8017 89.3347C96.2412 88.7019 98.1093 88.7019 98.5488 89.3347Z" fill="#B1F83C" fill-opacity="0.2"/>
<path d="M22.8395 92.3927C17.675 100.197 13.6094 113.644 11.9611 127.882C11.0821 135.528 11.137 149.713 11.9611 156.621C13.8841 171.807 21.9605 203.921 29.0479 224.645C35.2013 242.68 38.278 248.849 43.9919 254.439C46.739 257.181 50.9695 260.028 50.4201 258.816C50.2553 258.605 49.0466 256.232 47.673 253.648C44.3765 247.478 40.7504 238.25 37.6187 228.073C35.0914 219.847 32.674 209.142 33.0037 207.665C33.1136 207.191 35.2563 212.728 37.7836 219.952C43.7172 236.774 45.805 241.941 50.475 251.011C55.8593 261.505 55.9692 261.61 63.3863 263.034C68.9353 264.036 71.133 264.142 91.4064 264.142C107.229 264.142 113.822 263.983 114.866 263.562C118.438 262.032 129.426 236.194 138.107 208.878C139.59 204.291 141.128 200.441 141.513 200.283C142.447 199.914 148.93 200.599 149.809 201.127C150.358 201.443 149.974 203.5 148.051 210.197C142.502 229.549 135.195 248.48 129.865 257.128C128.766 258.921 127.997 260.45 128.162 260.609C128.492 260.978 134.041 258.183 136.293 256.443C139.37 254.122 143.106 249.007 146.073 243.101C152.336 230.815 162.665 196.064 168.05 169.276C170.907 155.25 171.621 146.074 170.797 134.473C169.698 118.442 167.061 107.158 162.006 97.0331C158.929 90.9162 158.655 90.6525 156.622 91.4435L154.974 92.129L156.787 95.9258C160.797 104.152 163.215 116.333 163.325 128.303C163.38 134.948 163.215 136.424 162.555 136.846C162.116 137.11 159.698 137.373 157.281 137.373H152.831L152.446 135.369C152.281 134.315 152.117 131.098 152.117 128.198C152.117 122.608 151.018 114.382 149.369 107.58C148.106 102.359 145.633 94.7657 145.084 94.4493C144.864 94.3438 141.952 94.5547 138.656 94.9239C113.822 97.8241 66.8476 97.7187 41.7394 94.7129L34.3772 93.8165L33.3333 95.4512C31.0807 98.9842 26.8502 107.843 25.2569 112.589C23.1692 118.548 21.7407 125.245 20.532 134.209C20.0375 137.795 19.543 140.906 19.3782 141.012C18.8288 141.539 19.2134 131.678 19.9826 126.194C21.5209 115.015 24.1581 106.683 29.0479 97.2968L31.2455 93.131L28.938 92.5509C27.6744 92.1818 26.136 91.6017 25.4218 91.1271C24.2131 90.3889 24.1032 90.4416 22.8395 92.3927ZM136.678 110.322C137.392 113.591 137.832 117.599 137.832 120.604C137.777 126.774 137.008 125.772 136.513 118.917C136.184 114.488 135.634 109.953 134.81 104.943C134.206 101.357 135.579 105.207 136.678 110.322ZM142.831 116.439C143.765 120.71 143.93 123.03 143.711 127.512C143.601 130.676 143.216 133.471 142.886 133.788C142.062 134.578 141.788 132.469 141.403 123.399C141.238 119.022 140.963 113.96 140.854 112.062C140.524 107.527 141.293 109.267 142.831 116.439ZM35.3661 110.163C36.6847 111.06 37.0693 115.595 36.2452 119.497C35.3661 123.452 32.8388 128.514 30.9708 129.885C29.1028 131.309 28.8281 131.309 27.3997 129.885C24.5427 126.932 27.07 115.12 31.5203 110.849C33.2234 109.267 33.8827 109.109 35.3661 110.163ZM55.9692 133.682C58.0569 134.737 59.2657 137.532 59.3206 141.381L59.3755 145.019L60.0898 142.91C60.5293 141.75 60.859 141.117 60.859 141.486C60.9139 141.856 61.1337 142.066 61.3534 141.908C62.1226 141.486 66.5729 146.127 66.1333 146.865C65.8586 147.287 65.1993 147.023 63.9906 145.969L62.2874 144.492L63.8807 146.18L65.474 147.867L64.2104 150.767C63.0017 153.615 63.0017 153.668 61.6831 152.877C60.9139 152.349 59.9799 152.191 59.2107 152.402C58.4965 152.666 57.8372 152.507 57.5625 152.086C57.2328 151.506 56.5735 151.558 54.1561 152.297C48.0027 154.142 44.6512 153.035 42.5085 148.5C41.6844 146.76 41.6295 146.074 42.1239 145.019C43.2228 142.752 48.3873 140.326 47.4533 142.488C46.3544 145.125 46.3544 145.072 47.3434 144.281C48.0576 143.754 48.2774 142.699 48.2774 140.326C48.3323 138.586 48.662 136.53 49.0466 135.844C50.3651 133.577 53.6616 132.522 55.9692 133.682ZM131.184 133.893C133.162 134.895 133.986 136.793 133.986 140.221C133.986 141.961 134.316 143.332 134.865 144.018C135.744 145.072 135.744 144.703 134.755 142.383C134.261 141.275 135.524 141.381 137.667 142.647C141.238 144.703 141.348 147.603 137.887 151.136C136.074 152.929 135.469 153.193 133.437 153.193C132.118 153.193 129.7 152.771 128.107 152.297C125.69 151.558 125.03 151.506 124.701 152.086C124.426 152.507 123.767 152.666 123.053 152.402C122.283 152.191 121.294 152.402 120.36 152.929C119.536 153.404 120.031 152.771 121.514 151.506C123.987 149.344 124.701 147.814 123.602 147.182C123.327 146.971 123.217 147.287 123.382 147.814C123.547 148.5 122.888 149.396 121.185 150.715L118.712 152.613L117.778 150.24L116.844 147.814L118.383 146.18L119.976 144.492L118.273 145.969C117.064 147.023 116.405 147.287 116.13 146.865C115.69 146.18 120.086 141.592 121.02 141.75C121.349 141.803 121.899 142.541 122.283 143.438C122.888 144.914 122.943 144.756 122.943 141.381C123.053 134.842 126.569 131.625 131.184 133.893ZM29.9819 136.319C30.861 137.953 30.9159 142.066 30.0918 144.07C29.3226 146.127 27.4546 147.92 26.5206 147.551C24.1032 146.654 23.3889 140.801 25.202 136.951C26.136 134.948 26.4656 134.684 27.7842 134.842C28.7182 134.948 29.5424 135.475 29.9819 136.319ZM99.0981 137.637C106.9 139.588 114.372 146.443 116.679 153.72L117.064 155.039L115.745 153.826C113.658 152.033 113.328 152.455 115.251 154.511C117.394 156.831 117.778 158.308 117.229 162.052C117.009 163.739 116.679 166.481 116.46 168.222C116.185 171.016 116.075 171.28 115.471 170.331C114.317 168.591 114.647 169.751 116.679 174.76C118.547 179.454 118.602 179.612 117.723 181.299C117.229 182.196 116.295 183.514 115.69 184.147C114.537 185.36 115.086 185.887 116.295 184.727C116.789 184.252 116.954 184.569 116.954 186.203C116.954 188.313 114.317 193.85 112.943 194.693C112.064 195.221 105.966 195.273 106.295 194.746C106.46 194.535 107.999 194.271 109.702 194.219C112.064 194.166 112.339 194.113 110.801 193.955C108.548 193.744 108.328 193.375 109.427 192.215C109.757 191.793 109.592 191.846 108.933 192.373C108.328 192.848 107.614 193.111 107.449 192.953C107.229 192.742 106.735 192.9 106.241 193.269C105.087 194.166 105.087 192.9 106.295 191.16C106.955 190.158 106.735 190.264 105.526 191.529C104.592 192.426 103.768 193.164 103.658 193.111C103.603 193.059 102.395 194.06 101.021 195.326C99.0432 197.224 98.8784 197.488 100.197 196.75C101.131 196.222 102.285 195.273 102.834 194.641C103.823 193.586 103.823 193.586 103.493 194.588C102.669 196.75 102.559 197.91 103.109 199.808C103.603 201.443 103.548 201.812 102.669 202.234C101.131 203.025 101.021 202.919 101.021 201.021C101.021 199.756 100.856 199.545 100.472 200.125C100.197 200.547 99.9223 201.39 99.9223 201.97C99.9223 203.394 99.3179 204.132 97.8894 204.554C96.7357 204.923 96.6258 204.765 96.5708 202.919L96.461 200.916L95.9115 202.919C95.527 204.291 94.9226 204.976 94.0985 205.187C92.2854 205.609 91.6811 205.081 91.6811 202.972C91.6811 201.97 91.4613 201.179 91.1316 201.179C90.8569 201.179 90.5822 201.97 90.5822 202.972C90.5822 205.081 89.9779 205.609 88.1648 205.187C87.3407 204.976 86.7363 204.291 86.3517 202.919L85.8023 200.916L85.6925 202.919C85.6375 204.765 85.5276 204.923 84.4288 204.554C82.8355 204.08 82.341 203.394 82.341 201.601C82.341 200.81 82.1213 200.019 81.7916 199.861C81.462 199.65 81.2422 200.23 81.2422 201.127C81.2422 202.814 80.9126 203.078 79.7038 202.287C79.2094 201.97 79.0995 201.127 79.3193 199.281C79.539 197.804 79.4291 196.012 79.0995 195.115C78.4951 193.586 78.4951 193.533 79.4841 194.641C79.9785 195.221 81.1873 196.17 82.0663 196.697C83.33 197.488 83.1651 197.172 81.2422 195.326C79.8687 194.06 78.66 193.059 78.605 193.111C78.4951 193.164 77.671 192.426 76.737 191.529C75.5283 190.264 75.3085 190.158 75.9678 191.16C77.2864 193.111 77.1216 194.219 75.7481 193.006C74.9789 192.32 74.6492 192.268 74.6492 192.742C74.6492 193.217 74.2646 193.111 73.4405 192.426C72.7263 191.898 72.5065 191.793 72.8911 192.215C73.2208 192.637 73.5504 193.164 73.5504 193.375C73.5504 194.06 70.5286 193.85 69.7595 193.111C69.1551 192.584 69.0452 192.637 69.265 193.269C69.4298 193.797 70.4188 194.113 72.5065 194.219C74.1548 194.324 75.6382 194.588 75.9129 194.799C76.1327 195.01 74.7591 195.062 72.8911 194.957C69.5397 194.746 68.0563 194.166 68.0563 193.217C68.0563 192.953 67.4519 191.793 66.6827 190.633C65.1993 188.418 64.595 183.409 65.9685 184.727C67.1772 185.887 67.7266 185.36 66.5179 184.147C65.9136 183.514 64.9796 182.143 64.54 181.141C63.7708 179.348 63.8258 179.032 65.6389 174.602C67.6167 169.751 67.8914 168.591 66.7926 170.331C66.1883 171.28 66.0784 171.016 65.8037 168.222C65.5839 166.481 65.2543 163.739 65.0345 162.052C64.4851 158.308 64.8697 156.831 67.0124 154.511C68.9353 152.455 68.6057 152.033 66.5179 153.826L65.1993 155.039L65.5839 153.72C67.8365 146.601 75.3635 139.641 82.8904 137.69C86.9012 136.635 95.0325 136.635 99.0981 137.637ZM60.2546 154.248C61.793 155.144 63.1115 156.093 63.1115 156.357C63.1115 157.095 62.6171 156.99 61.0238 155.882C60.1997 155.355 58.5514 154.406 57.3427 153.773C55.8593 153.035 55.5296 152.666 56.2439 152.666C56.8482 152.666 58.6613 153.404 60.2546 154.248ZM124.921 153.773C123.712 154.406 122.009 155.355 121.185 155.935C119.426 157.148 118.328 156.673 119.976 155.46C121.459 154.406 125.25 152.666 126.294 152.666C126.734 152.666 126.129 153.193 124.921 153.773ZM24.6526 174.813C27.0151 184.569 28.7732 193.691 28.3886 194.113C27.6194 194.851 21.8506 169.804 21.9605 166.112C22.0154 164.952 22.1253 164.478 22.2901 165.058C22.4 165.638 23.4988 170.015 24.6526 174.813ZM61.0238 184.621C60.3645 185.043 59.9249 185.623 60.0898 185.887C60.2546 186.151 59.8151 186.731 59.1558 187.258C58.0569 188.049 58.002 188.102 58.9909 187.838C60.0348 187.522 60.0348 187.522 59.1008 188.154C56.4087 189.842 56.5735 190.053 59.4305 188.576L62.6171 186.994L62.4523 188.682C62.2874 190.369 61.0238 191.266 57.3427 192.531L56.2439 192.9L57.3427 193.164C59.5953 193.639 59.87 194.271 59.5404 198.226C59.2107 201.548 58.9909 202.128 57.4526 203.394C55.5846 204.976 56.1889 205.345 58.6613 204.08C60.3095 203.289 61.4633 200.968 61.4633 198.49C61.4633 197.119 64.0456 193.48 64.6499 194.008C64.8147 194.166 64.2653 194.957 63.4961 195.695C62.5072 196.644 62.0127 197.646 62.0127 198.806C62.0127 201.285 61.0238 203.658 59.5404 204.554C57.4526 205.872 54.1561 205.609 52.1782 204.027C50.5849 202.761 50.475 202.445 50.475 199.228C50.475 196.064 50.5849 195.695 52.1782 194.271C53.1122 193.428 53.7715 192.742 53.6067 192.742C52.5628 192.742 51.409 193.586 50.6948 194.904C49.9806 196.275 49.596 196.433 47.3434 196.433C45.6951 196.433 44.4315 196.117 43.7722 195.537C42.8382 194.746 42.7832 194.746 43.0579 195.537C43.2777 196.012 44.1018 196.592 44.871 196.908C46.0248 197.277 46.0797 197.435 45.3105 197.435C43.7722 197.488 42.2338 195.959 42.2888 194.377C42.2888 193.639 42.7283 191.793 43.2228 190.369C43.937 188.26 44.5963 187.522 46.1896 186.678C48.0027 185.729 48.4422 185.729 50.5849 186.362C53.3869 187.205 58.0569 187.733 57.5075 187.205C57.068 186.783 60.7491 183.83 61.738 183.778C62.0127 183.778 61.6831 184.147 61.0238 184.621ZM123.108 185.307C124.261 186.098 124.976 186.942 124.756 187.205C124.206 187.733 128.876 187.205 131.678 186.362C133.821 185.729 134.261 185.729 136.074 186.678C137.667 187.522 138.326 188.26 139.041 190.369C139.535 191.793 139.975 193.586 139.975 194.271C140.029 196.012 138.546 197.488 136.788 197.435C135.414 197.383 135.469 197.383 137.063 196.908C138.052 196.644 138.986 196.064 139.15 195.642C139.425 194.904 139.37 194.904 138.271 195.642C137.557 196.064 135.964 196.433 134.7 196.433C132.667 196.433 132.283 196.222 131.514 194.851C131.019 193.955 130.58 193.269 130.47 193.269C130.305 193.269 129.755 193.111 129.206 192.9C128.602 192.689 128.931 193.217 130.03 194.166C131.678 195.695 131.788 196.064 131.788 199.228C131.788 202.445 131.678 202.761 130.085 204.027C128.876 205.029 127.778 205.398 126.074 205.398C122.448 205.398 120.251 202.867 120.251 198.754C120.251 197.488 119.811 196.486 118.822 195.537C118.053 194.799 117.558 194.113 117.668 194.008C118.218 193.428 120.8 197.172 120.8 198.49C120.8 200.968 121.954 203.289 123.602 204.08C126.074 205.345 126.679 204.976 124.811 203.394C123.272 202.128 123.053 201.548 122.778 198.226C122.448 194.271 122.723 193.639 124.921 193.164L126.019 192.9L124.921 192.531C121.185 191.266 119.976 190.369 119.811 188.682L119.646 186.994L122.283 188.313C124.481 189.473 124.701 189.525 123.547 188.576C122.393 187.627 122.338 187.522 123.272 187.785C124.261 188.102 124.206 187.996 123.108 187.258C122.448 186.731 122.009 186.151 122.174 185.887C122.338 185.623 121.899 185.043 121.24 184.621C120.58 184.147 120.251 183.778 120.525 183.778C120.855 183.778 122.009 184.463 123.108 185.307Z" fill="#B1F83C" fill-opacity="0.2"/>
<path d="M54.8706 140.274C54.1014 141.17 51.9587 141.328 50.4204 140.537C49.7061 140.115 49.3765 140.168 49.3765 140.537C49.3765 141.434 51.9038 142.277 53.4421 141.908C54.2113 141.75 55.0904 141.117 55.42 140.537C56.1343 139.272 55.8595 139.166 54.8706 140.274Z" fill="#B1F83C" fill-opacity="0.2"/>
<path d="M51.1345 143.543C51.7938 144.334 53.1673 144.44 54.2662 143.754C54.7606 143.438 54.3211 143.227 52.7827 143.069C51.0246 142.911 50.695 143.016 51.1345 143.543Z" fill="#B1F83C" fill-opacity="0.2"/>
<path d="M58.5515 147.235C57.6175 148.078 58.3318 149.555 60.3646 151.084C61.6282 152.033 62.7271 152.666 62.8919 152.508C63.0567 152.402 62.1227 151.506 60.914 150.557C59.3207 149.344 58.7163 148.553 58.8812 147.867C59.1559 146.813 59.1009 146.655 58.5515 147.235Z" fill="#B1F83C" fill-opacity="0.2"/>
<path d="M44.7063 149.08C48.3324 152.982 49.4862 153.404 52.8376 151.927C53.8266 151.506 55.0902 151.031 55.6946 150.925C56.7385 150.715 56.7385 150.715 55.8044 150.293C55.1452 150.029 54.0463 150.187 52.8926 150.767C49.9807 152.086 48.717 151.822 46.3545 149.502C43.7723 146.971 42.4537 146.654 44.7063 149.08Z" fill="#B1F83C" fill-opacity="0.2"/>
<path d="M126.789 140.379C127.119 141.064 128.053 141.75 128.822 141.908C130.36 142.277 132.887 141.434 132.887 140.537C132.887 140.168 132.558 140.115 131.844 140.537C130.25 141.328 128.437 141.17 127.228 140.115C126.185 139.272 126.13 139.272 126.789 140.379Z" fill="#B1F83C" fill-opacity="0.2"/>
<path d="M129.316 143.174C127.118 143.49 127.118 143.49 128.657 143.912C129.81 144.229 130.47 144.123 131.129 143.49C131.623 143.016 131.898 142.699 131.788 142.699C131.623 142.752 130.525 142.963 129.316 143.174Z" fill="#B1F83C" fill-opacity="0.2"/>
<path d="M135.964 149.502C133.327 151.822 132.228 152.033 129.371 150.768C128.217 150.188 127.118 150.03 126.459 150.293C125.635 150.662 125.69 150.768 127.118 151.084C128.052 151.348 129.536 151.822 130.47 152.192C132.887 153.141 134.536 152.508 136.898 149.766C139.48 146.813 139.096 146.707 135.964 149.502Z" fill="#B1F83C" fill-opacity="0.2"/>
<path d="M83.3851 140.907C82.6709 141.751 82.7258 141.803 83.6049 141.118C84.2642 140.59 85.4729 140.485 87.7255 140.696C89.7034 140.907 90.4726 140.854 89.7583 140.538C87.7804 139.694 84.2092 139.905 83.3851 140.907Z" fill="#B1F83C" fill-opacity="0.2"/>
<path d="M92.5051 140.537L91.4062 141.012L92.5051 140.959C93.1094 140.959 94.2083 140.748 94.9774 140.537L96.351 140.115H94.9774C94.2083 140.115 93.1094 140.273 92.5051 140.537Z" fill="#B1F83C" fill-opacity="0.2"/>
<path d="M96.626 140.222C96.626 140.327 97.1204 140.538 97.7248 140.696C98.3292 140.854 98.7137 140.749 98.494 140.485C98.2193 140.011 96.626 139.8 96.626 140.222Z" fill="#B1F83C" fill-opacity="0.2"/>
<path d="M73.9354 144.387C72.1223 145.811 71.7377 146.602 71.0235 149.66C70.6389 151.611 69.7598 154.142 69.1555 155.302C68.5511 156.41 68.0567 157.939 68.1116 158.572C68.1665 159.521 68.2764 159.468 68.661 158.097C68.9907 157.095 70.0345 155.83 71.2982 154.933C72.5069 154.142 73.8804 152.824 74.32 152.033C75.6386 149.924 75.3639 149.607 73.9903 151.611C73.2761 152.56 72.1223 153.72 71.3531 154.195C70.0895 154.986 70.0345 154.986 70.4741 153.984C70.7488 153.404 71.2433 151.558 71.5729 149.924C72.0674 147.551 72.6168 146.443 74.3749 144.756C76.9572 142.225 76.7923 142.067 73.9354 144.387Z" fill="#B1F83C" fill-opacity="0.2"/>
<path d="M107.944 144.808C109.757 146.654 110.306 147.656 110.636 149.765C110.856 151.189 111.24 152.824 111.57 153.351C112.504 155.038 111.68 154.88 109.592 153.035C108.493 152.033 107.614 151.347 107.614 151.558C107.669 152.191 108.988 153.509 111.076 154.986C112.229 155.829 113.328 157.2 113.603 158.15C113.988 159.363 114.097 159.468 114.152 158.677C114.207 158.044 113.603 156.251 112.889 154.722C112.174 153.14 111.405 150.82 111.186 149.502C110.636 146.39 110.252 145.705 107.779 143.965L105.691 142.488L107.944 144.808Z" fill="#B1F83C" fill-opacity="0.2"/>
<path d="M77.8361 153.141C77.1219 153.721 75.8033 154.354 75.0341 154.565C73.5507 154.881 71.353 157.043 71.353 158.15C71.353 158.467 71.8475 157.992 72.3969 157.043C73.0562 156.041 74.1001 155.25 75.089 155.039C76.7373 154.723 80.8579 152.139 79.7591 152.139C79.4294 152.139 78.6053 152.614 77.8361 153.141Z" fill="#B1F83C" fill-opacity="0.2"/>
<path d="M103.713 153.405C104.757 154.143 106.295 154.881 107.175 155.039C108.163 155.25 109.207 156.041 109.867 157.043C110.416 157.992 110.911 158.467 110.911 158.15C110.911 157.043 108.713 154.881 107.229 154.565C106.46 154.354 105.142 153.721 104.427 153.141C103.658 152.614 102.834 152.139 102.505 152.139C102.175 152.139 102.724 152.719 103.713 153.405Z" fill="#B1F83C" fill-opacity="0.2"/>
<path d="M68.1665 161.631C68.1665 162.633 68.2764 163.055 68.4412 162.528C68.5511 162.053 68.5511 161.209 68.4412 160.682C68.2764 160.207 68.1665 160.629 68.1665 161.631Z" fill="#B1F83C" fill-opacity="0.2"/>
<path d="M113.768 161.631C113.768 162.633 113.877 163.055 114.042 162.528C114.152 162.053 114.152 161.209 114.042 160.682C113.877 160.207 113.768 160.629 113.768 161.631Z" fill="#B1F83C" fill-opacity="0.2"/>
<path d="M71.9572 164.32C71.8473 165.849 73.3856 167.062 76.0778 167.748C77.5612 168.117 78.8798 168.328 78.9897 168.17C79.2644 167.906 76.4074 166.904 75.3086 166.904C73.9351 166.904 73.1109 166.271 72.5066 164.795C72.2319 164.056 71.9572 163.845 71.9572 164.32Z" fill="#B1F83C" fill-opacity="0.2"/>
<path d="M109.867 164.372C109.812 165.532 108.328 166.903 107.065 166.903C105.856 166.903 102.944 167.905 103.274 168.169C103.384 168.327 104.702 168.116 106.186 167.8C108.878 167.22 110.746 165.532 110.196 164.161C109.977 163.687 109.867 163.792 109.867 164.372Z" fill="#B1F83C" fill-opacity="0.2"/>
<path d="M70.8585 168.96C70.3091 169.277 70.8036 169.382 72.287 169.171C74.155 168.96 75.4186 169.277 79.4294 171.069C86.0223 173.97 87.1761 173.812 80.9677 170.806C76.0779 168.486 72.6716 167.853 70.8585 168.96Z" fill="#B1F83C" fill-opacity="0.2"/>
<path d="M101.296 170.859C95.0877 173.812 96.2414 173.97 102.834 171.069C106.845 169.277 108.109 168.96 109.977 169.171C111.46 169.382 111.955 169.277 111.405 168.96C109.592 167.853 106.241 168.486 101.296 170.859Z" fill="#B1F83C" fill-opacity="0.2"/>
<path d="M95.2524 170.859C93.2745 171.755 89.5934 171.861 87.4507 171.07C86.2969 170.648 86.0771 170.7 86.5167 171.122C88.0001 172.546 94.2634 172.388 96.4061 170.859C97.6698 169.909 97.3951 169.909 95.2524 170.859Z" fill="#B1F83C" fill-opacity="0.2"/>
<path d="M70.529 174.287C71.3531 174.603 71.408 174.761 70.7487 174.761C69.2653 174.867 67.5072 177.134 67.0127 179.718C66.7929 181.089 66.738 182.038 66.9578 181.933C67.1775 181.775 67.5621 180.878 67.727 179.929C68.1665 177.767 69.4851 175.869 70.6388 175.869C71.408 175.869 71.3531 176.027 70.474 176.976C68.9906 178.558 69.0455 182.671 70.5839 184.675C72.0124 186.573 75.9682 188.524 78.3306 188.524C81.8469 188.524 83.9347 187.259 85.3631 184.2C86.5169 181.722 86.6268 181.616 86.3521 183.251C86.1873 184.253 85.6928 185.677 85.2533 186.362C84.7588 187.101 84.7038 187.47 85.0884 187.206C86.1323 186.626 87.2861 183.515 87.2861 181.406C87.2861 179.929 87.5608 179.454 88.6047 179.085C89.8134 178.611 90.5826 177.503 90.5826 176.238C90.5826 175.869 90.2529 176.185 89.8683 176.923C88.7146 179.138 86.0774 178.927 79.3196 176.185C75.6935 174.709 72.6717 173.759 71.463 173.812C69.8147 173.812 69.6499 173.918 70.529 174.287Z" fill="#B1F83C" fill-opacity="0.2"/>
<path d="M102.944 176.132C96.0215 178.874 93.4942 179.085 92.3954 176.923C92.0108 176.185 91.6812 175.869 91.6812 176.238C91.6812 177.503 92.4503 178.611 93.659 179.085C94.7029 179.454 94.9776 179.929 94.9776 181.406C94.9776 183.515 96.1314 186.626 97.1753 187.206C97.5599 187.47 97.5049 187.101 97.0105 186.362C96.5709 185.677 96.0765 184.253 95.9116 183.251C95.582 181.564 95.6919 181.669 96.8456 184.095C98.2741 187.048 100.582 188.524 103.878 188.524C106.296 188.524 110.251 186.573 111.68 184.675C113.218 182.671 113.273 178.558 111.79 176.976C110.251 175.341 111.13 174.972 112.779 176.554C113.493 177.292 114.317 178.716 114.482 179.771C114.702 180.826 115.086 181.775 115.306 181.933C115.526 182.038 115.471 181.089 115.251 179.718C114.757 177.134 112.998 174.867 111.515 174.761C110.856 174.761 110.911 174.603 111.735 174.287C112.614 173.918 112.504 173.812 110.911 173.812C109.812 173.759 106.35 174.814 102.944 176.132Z" fill="#B1F83C" fill-opacity="0.2"/>
<path d="M88.1649 184.042C87.6155 185.782 86.8464 188.524 86.4618 190.106C86.0772 191.688 85.5827 193.534 85.3629 194.114C85.0882 195.01 85.4179 195.537 86.9562 196.697C88.8792 198.121 88.9891 198.121 90.033 197.225C91.0768 196.328 91.1867 196.328 92.2306 197.225C93.2745 198.121 93.3844 198.121 95.3073 196.697C96.8457 195.537 97.1753 195.01 96.9006 194.114C96.6809 193.534 96.0765 191.213 95.5271 189.051C94.5931 185.149 92.5053 179.454 93.0547 182.302C93.2196 183.04 93.4943 184.094 93.6591 184.675C93.9338 185.571 93.9338 185.571 93.3294 184.675C92.9998 184.147 92.0658 183.778 91.1318 183.778C90.1978 183.778 89.3187 184.147 88.9891 184.675C88.2199 185.94 88.2199 185.044 88.9891 183.725C89.2638 183.145 89.4835 182.302 89.3737 181.774C89.2638 181.3 88.7144 182.354 88.1649 184.042Z" fill="#B1F83C" fill-opacity="0.2"/>
<path d="M83.4399 195.484C83.4399 195.959 83.7146 196.539 84.0443 196.697C84.9783 197.277 85.0332 196.803 84.2091 195.695C83.5498 194.799 83.4399 194.799 83.4399 195.484Z" fill="#B1F83C" fill-opacity="0.2"/>
<path d="M97.8346 195.907C97.3951 196.592 97.3951 196.961 97.7247 196.961C98.0544 196.961 98.439 196.592 98.6587 196.17C99.1532 194.905 98.6038 194.746 97.8346 195.907Z" fill="#B1F83C" fill-opacity="0.2"/>
<path d="M87.9452 199.334C88.7694 200.178 89.0441 200.23 89.5935 199.65C90.1978 199.07 90.1429 198.965 89.5935 199.281C89.2089 199.492 88.4397 199.387 87.9452 199.018C87.1211 198.385 87.1211 198.438 87.9452 199.334Z" fill="#B1F83C" fill-opacity="0.2"/>
<path d="M94.1538 199.123C93.934 199.439 93.3846 199.545 92.8352 199.334C92.121 199.07 92.066 199.123 92.6704 199.65C93.2198 200.23 93.4945 200.177 94.2637 199.439C94.8131 198.965 95.0329 198.543 94.868 198.543C94.6483 198.543 94.3186 198.806 94.1538 199.123Z" fill="#B1F83C" fill-opacity="0.2"/>
<path d="M45.8051 187.469C45.5854 187.838 45.915 187.944 46.7391 187.733C47.3984 187.575 49.1016 187.786 50.4752 188.207L52.9475 188.946L49.3763 188.735L45.8051 188.577L49.3214 189.262C51.8487 189.789 53.3321 189.842 54.8155 189.473L56.7934 188.893L53.2222 187.944C49.2115 186.836 46.2996 186.678 45.8051 187.469Z" fill="#B1F83C" fill-opacity="0.2"/>
<path d="M128.767 187.997L125.47 188.893L127.448 189.42C128.767 189.789 130.415 189.789 132.338 189.473C133.931 189.209 135.579 189.104 136.019 189.262C136.513 189.473 136.623 189.368 136.404 188.998C136.184 188.577 134.865 188.471 132.668 188.682L129.316 188.946L131.788 188.207C133.162 187.786 134.865 187.575 135.524 187.733C136.349 187.944 136.678 187.838 136.458 187.469C135.964 186.678 132.613 186.942 128.767 187.997Z" fill="#B1F83C" fill-opacity="0.2"/>
<path d="M10.9724 111.113C9.92848 114.224 7.67589 125.404 7.12647 130.624C5.42329 145.442 7.2913 161.314 13.4447 184.938C15.7523 193.903 18.4993 201.918 18.5543 200.02C18.6092 199.545 18.3345 198.491 18.0049 197.647C17.6752 196.856 16.1918 191.161 14.7084 185.097C7.2913 154.723 6.52212 141.171 10.8625 115.754C11.4119 112.432 11.7965 109.637 11.7415 109.531C11.6317 109.426 11.302 110.164 10.9724 111.113Z" fill="#B1F83C" fill-opacity="0.2"/>
<path d="M170.522 110.48C176.236 140.748 175.192 157.412 165.247 194.271C164.313 197.541 163.709 200.336 163.819 200.441C164.204 200.863 166.951 192.268 169.148 183.778C174.972 161.419 176.84 144.492 175.192 130.255C174.478 124.349 172.06 112.853 171.016 110.744C170.412 109.373 170.302 109.32 170.522 110.48Z" fill="#B1F83C" fill-opacity="0.2"/>
<path d="M137.338 215.259C135.085 221.85 133.162 227.598 132.997 228.02C132.832 228.547 132.997 228.653 133.602 228.442C135.305 227.809 137.777 229.127 138.272 230.868C138.711 232.397 138.821 232.239 140.524 227.756C142.887 221.481 147.721 206.136 147.721 204.871C147.721 204.132 147.337 203.816 146.513 203.816C145.799 203.816 144.37 203.658 143.326 203.499L141.403 203.236L137.338 215.259Z" fill="#B1F83C" fill-opacity="0.2"/>
</svg>
