<svg width="16" height="16" viewBox="0 0 16 16" fill="none" xmlns="http://www.w3.org/2000/svg">
<g id="emojione-monotone:tumbler-glass" clip-path="url(#clip0_1_2618)">
<path id="Vector" d="M15.227 0.8485C15.023 0.62375 14.7373 0.5 14.4223 0.5H1.57802C1.26277 0.5 0.977022 0.62375 0.772772 0.8485C0.570772 1.07025 0.475772 1.3615 0.505272 1.6685L1.71027 14.3778C1.76877 14.9965 2.32677 15.5 2.95402 15.5H13.0465C13.6735 15.5 14.2315 14.9965 14.2903 14.378L15.4948 1.6685C15.524 1.36125 15.4293 1.07 15.227 0.8485ZM13.808 14.3322C13.7728 14.7027 13.4243 15.0162 13.0463 15.0162H2.95377C2.57577 15.0162 2.22677 14.7028 2.19152 14.332L0.987022 1.6225C0.971022 1.45275 1.02202 1.2935 1.13077 1.17375C1.24227 1.05125 1.40077 0.98375 1.57802 0.98375H14.4223C14.599 0.98375 14.7578 1.05125 14.8695 1.17375C14.978 1.2935 15.0288 1.45275 15.013 1.6225L13.808 14.3322Z" fill="white"/>
<path id="Vector_2" d="M13.3394 11.402C11.8134 11.402 10.3859 12.3095 10.3859 12.3095C10.3859 12.3095 13.1544 11.8793 12.8829 12.0825C10.8154 13.6323 4.65512 13.5883 3.45787 12.196C2.80712 11.44 7.61612 13.2413 8.56787 11.402H2.66087C2.41087 11.402 2.23537 11.6045 2.27037 11.851L2.59662 14.1288C2.63212 14.3755 2.86512 14.5775 3.11512 14.5775H12.8854C13.1354 14.5775 13.3684 14.3755 13.4039 14.1288L13.7301 11.851C13.7654 11.6045 13.7346 11.402 13.3394 11.402ZM6.07262 14.0958C3.40737 14.0958 3.11537 14.5778 3.01037 13.3588C2.94937 12.6475 3.87562 13.4758 4.74137 13.6423C5.03412 13.6988 8.73737 14.0958 6.07262 14.0958ZM13.1524 13.3588C13.0474 14.5778 12.7559 14.0958 10.0909 14.0958C7.42537 14.0958 11.1289 13.6988 11.4219 13.6423C12.2876 13.4755 13.2139 12.6475 13.1524 13.3588ZM13.7261 7.33377C13.2871 7.22752 12.8886 7.18852 12.8886 7.18852C12.7871 6.82127 12.1074 6.25202 11.2646 5.50077C11.0839 5.41577 10.8736 5.36902 10.6996 5.38827L9.26787 5.53627C8.98212 5.56552 8.65612 5.79652 8.52612 6.06202L8.10712 6.91602C8.15012 6.61827 8.08287 6.22327 7.93987 5.97627L7.04362 4.41802C6.87862 4.13227 6.48637 3.96352 6.17387 4.04552L4.40012 4.51352C4.10012 4.59252 3.76387 4.87902 3.63512 5.16527L2.93262 6.73702C2.81462 6.97202 2.90412 7.27402 2.90412 7.27427L2.33637 7.32377C2.10737 7.34627 1.94262 7.53727 1.96462 7.77102L2.22312 10.4965C2.24662 10.745 2.47262 10.9483 2.72462 10.9483H13.2754C13.5274 10.9483 13.7534 10.745 13.7769 10.4965L14.0356 7.77102C14.0462 7.67293 14.0206 7.57434 13.9636 7.49382C13.9066 7.41329 13.8222 7.35637 13.7261 7.33377ZM8.74387 6.16827C8.83762 5.97677 9.08912 5.79777 9.29312 5.77677L10.7254 5.62877C10.9384 5.60677 11.2351 5.71952 11.3771 5.86527L12.5201 7.04552C12.5591 7.08552 12.5899 7.13852 12.6109 7.19877H10.6269C10.5126 7.09002 10.4439 7.00252 10.4439 7.00252C10.4439 7.00252 9.52737 5.79052 9.31062 6.01402C9.12812 6.20302 9.76087 6.68602 10.2179 7.19877H8.60462C8.65637 7.07952 8.71937 6.95752 8.78537 6.82827C9.10287 6.20502 8.86837 6.18377 8.59212 6.68377C8.50562 6.84002 8.39837 7.01852 8.29862 7.19902H8.23837L8.74387 6.16827ZM12.0684 7.44052C11.9659 7.46552 11.8496 7.50252 11.7236 7.55452C11.4434 7.66977 11.1656 7.57927 10.9399 7.44052H12.0684ZM3.18787 6.74777L3.85587 5.26452C3.95462 5.04477 4.23187 4.80777 4.46187 4.74727L6.23612 4.27902C6.44187 4.22427 6.72437 4.34852 6.83387 4.53852L7.73087 6.09652C7.85637 6.31327 7.91412 6.70152 7.85787 6.94402L7.79887 7.19877H6.75337C6.61312 6.90627 6.49137 6.61627 6.46137 6.38152C6.40587 5.94252 6.62337 5.40727 6.66187 4.89777C6.71062 4.25077 6.38337 4.57977 6.27337 5.35402C6.16287 6.12927 5.02237 6.30202 5.02237 6.30202C5.02237 6.30202 3.34587 6.53077 3.43687 6.86577C3.55337 7.29427 5.37212 6.26177 6.06887 6.63902C6.19637 6.70802 6.32762 6.92902 6.45712 7.19852H3.14337C3.11862 7.03352 3.13437 6.86727 3.18787 6.74777ZM7.04362 9.04052L5.01812 9.56977C4.75462 9.63852 4.41287 9.50302 4.25887 9.26827L3.15137 7.58327C3.12306 7.53836 3.09976 7.49049 3.08187 7.44052H3.51337C3.47162 7.49077 3.51562 7.67577 3.67037 7.93902C3.99487 8.49102 4.41737 9.38652 4.83637 9.27602C5.25537 9.16552 6.41312 8.85977 6.62737 8.80277C6.84212 8.74602 6.92812 8.37627 5.77612 8.68052C4.62387 8.98502 4.33337 8.48502 3.91737 7.82952C3.77062 7.59902 3.65787 7.47852 3.58612 7.44052H6.56762C6.84287 8.06677 7.09862 8.78327 7.26937 8.54627C7.37587 8.39877 7.12412 7.93827 6.87237 7.44052H7.86612L7.63712 8.42252C7.57387 8.69302 7.30737 8.97202 7.04362 9.04052ZM12.6896 7.68027L11.8926 9.08977C11.7681 9.31002 11.4731 9.55002 11.2374 9.62377L9.97612 10.015C9.74087 10.0883 9.40912 10.0045 9.24037 9.82927L7.93887 8.48002C7.76937 8.30452 7.72212 7.97477 7.83412 7.74752L7.98487 7.44052H8.17287C8.01987 7.75727 7.93462 8.05002 8.08387 8.20377C8.35412 8.48252 9.10012 9.25227 9.23787 9.39527C9.37712 9.53777 9.69837 9.43777 8.95512 8.67152C8.47262 8.17352 8.41262 7.80727 8.51612 7.44052H10.4136C10.5489 7.62452 10.6441 7.80752 10.6489 7.97652C10.6601 8.43002 9.30912 9.73952 9.71862 9.78277C9.99787 9.81202 10.5209 8.55752 11.0199 8.16802C11.3309 7.92552 11.8376 7.85377 12.2449 7.65277C12.4381 7.55752 12.5036 7.48327 12.4764 7.44052H12.7581C12.7516 7.52552 12.7301 7.60852 12.6896 7.68027Z" fill="white"/>
</g>
<defs>
<clipPath id="clip0_1_2618">
<rect width="16" height="16" fill="white"/>
</clipPath>
</defs>
</svg>
